<?xml version="1.0" encoding="UTF-8"?>
<svg id="_图层_2" data-name="图层 2" xmlns="http://www.w3.org/2000/svg" xmlns:xlink="http://www.w3.org/1999/xlink" viewBox="0 0 821.01 131.72">
  <defs>
    <style>
      .cls-1 {
        fill: url(#linear-gradient-4);
      }

      .cls-1, .cls-2, .cls-3, .cls-4, .cls-5, .cls-6, .cls-7 {
        fill-rule: evenodd;
      }

      .cls-2 {
        fill: url(#linear-gradient-2);
      }

      .cls-3 {
        fill: url(#linear-gradient);
      }

      .cls-4, .cls-8 {
        fill: #d7e3e3;
      }

      .cls-9 {
        fill: url(#linear-gradient-11);
      }

      .cls-10 {
        fill: #3e3a39;
      }

      .cls-5 {
        fill: url(#linear-gradient-6);
      }

      .cls-11 {
        clip-path: url(#clippath-1);
      }

      .cls-12 {
        fill: url(#linear-gradient-10);
      }

      .cls-6 {
        fill: url(#linear-gradient-5);
      }

      .cls-13 {
        clip-path: url(#clippath);
      }

      .cls-14 {
        clip-rule: evenodd;
        fill: none;
      }

      .cls-15 {
        fill: url(#linear-gradient-7);
      }

      .cls-16 {
        fill: url(#linear-gradient-9);
      }

      .cls-7 {
        fill: url(#linear-gradient-3);
      }

      .cls-17 {
        fill: url(#linear-gradient-8);
      }

      .cls-18 {
        fill: url(#linear-gradient-12);
      }

      .cls-19 {
        fill: url(#linear-gradient-13);
      }
    </style>
    <clipPath id="clippath">
      <path class="cls-14" d="M19.69,6.56H85.31c7.22,0,13.12,5.91,13.12,13.12V85.31c0,7.22-5.91,13.12-13.12,13.12H19.69c-7.22,0-13.12-5.91-13.12-13.12V19.69c0-7.22,5.91-13.12,13.12-13.12"/>
    </clipPath>
    <linearGradient id="linear-gradient" x1="74.74" y1="54.28" x2="71.37" y2="34.28" gradientUnits="userSpaceOnUse">
      <stop offset="0" stop-color="#62c0b4"/>
      <stop offset="1" stop-color="#008698"/>
    </linearGradient>
    <linearGradient id="linear-gradient-2" x1="58.04" y1="59.52" x2="13.98" y2="-.05" gradientUnits="userSpaceOnUse">
      <stop offset="0" stop-color="#009dda"/>
      <stop offset=".24" stop-color="#088ccc"/>
      <stop offset=".72" stop-color="#1e60a7"/>
      <stop offset="1" stop-color="#2d4390"/>
    </linearGradient>
    <linearGradient id="linear-gradient-3" x1="33.27" y1="61.27" x2="29.89" y2="41.27" xlink:href="#linear-gradient"/>
    <linearGradient id="linear-gradient-4" x1="60.14" y1="12.93" x2="75.65" y2="57.77" xlink:href="#linear-gradient"/>
    <linearGradient id="linear-gradient-5" x1="22.04" y1="26.1" x2="37.55" y2="70.95" xlink:href="#linear-gradient"/>
    <linearGradient id="linear-gradient-6" x1="41" y1="20.42" x2="79.94" y2="63.91" gradientTransform="translate(-15.06 2.41)" gradientUnits="userSpaceOnUse">
      <stop offset="0" stop-color="#2c9ccf"/>
      <stop offset=".24" stop-color="#2b8bc2"/>
      <stop offset=".72" stop-color="#285fa3"/>
      <stop offset="1" stop-color="#27438f"/>
    </linearGradient>
    <clipPath id="clippath-1">
      <path class="cls-14" d="M91.88,45.94V19.69c0-3.61-2.96-6.56-6.56-6.56h-22.97c-3.61,0-6.56,2.96-6.56,6.56v26.25l29.53,16.99v22.39h-22.97v-22.48l-6.56-3.77v26.25c0,3.61,2.95,6.56,6.56,6.56h22.97c3.61,0,6.56-2.95,6.56-6.56v-26.25l-29.53-16.99V19.69h22.97v22.47l6.56,3.78ZM19.69,13.6c-3.61,0-6.56,2.95-6.56,6.56V85.79c0,3.61,2.95,6.56,6.56,6.56h22.97c3.61,0,6.56-2.95,6.56-6.56V20.16c0-3.61-2.95-6.56-6.56-6.56H19.69Zm22.97,72.19H19.69V20.16h22.97V85.79Zm55.78-39.82v-.02l6.56-3.78V0H5.26C2.61,.52,.52,2.61,0,5.26V105H99.09c3.31-.4,5.87-3.22,5.87-6.64,0-.07,.02-.12,.04-.17v-31.58l-6.56-3.78v-.09h0s0,22.57,0,22.57c0,7.22-5.91,13.12-13.12,13.12H19.69c-7.22,0-13.13-5.91-13.13-13.12V19.69c0-7.22,5.91-13.12,13.13-13.12H85.31c7.22,0,13.12,5.91,13.12,13.12v26.27h0ZM13.13,101.72H3.28v-9.84l9.84,9.84Z"/>
    </clipPath>
    <linearGradient id="linear-gradient-7" x1="79.63" y1="40.94" x2="69.5" y2="70.66" gradientUnits="userSpaceOnUse">
      <stop offset="0" stop-color="#fff"/>
      <stop offset="1" stop-color="#fff" stop-opacity="0"/>
    </linearGradient>
    <linearGradient id="linear-gradient-8" x1="28.86" y1="101.58" x2="39.99" y2="125.86" xlink:href="#linear-gradient-2"/>
    <linearGradient id="linear-gradient-9" x1="6.34" y1="111.9" x2="17.47" y2="136.18" xlink:href="#linear-gradient-2"/>
    <linearGradient id="linear-gradient-10" x1="3.81" y1="113.06" x2="14.94" y2="137.34" xlink:href="#linear-gradient-2"/>
    <linearGradient id="linear-gradient-11" x1="49.28" y1="92.22" x2="60.4" y2="116.5" xlink:href="#linear-gradient-2"/>
    <linearGradient id="linear-gradient-12" x1="74.33" y1="80.74" x2="85.45" y2="105.02" xlink:href="#linear-gradient-2"/>
    <linearGradient id="linear-gradient-13" x1="62.46" y1="110.9" x2="67.22" y2="119.47" gradientUnits="userSpaceOnUse">
      <stop offset="0" stop-color="#eddc44"/>
      <stop offset=".19" stop-color="#e8cb41"/>
      <stop offset=".58" stop-color="#dc9e3a"/>
      <stop offset=".99" stop-color="#cd6832"/>
    </linearGradient>
  </defs>
  <g id="_图层_1-2" data-name="图层 1">
    <g>
      <g>
        <g class="cls-13">
          <path class="cls-4" d="M76.05,88.47c-.41,0-.74-.33-.74-.74s.33-.74,.74-.74,.74,.33,.74,.74-.33,.74-.74,.74m0,.74c-.82,0-1.48-.66-1.48-1.48s.66-1.48,1.48-1.48,1.48,.66,1.48,1.48-.66,1.48-1.48,1.48Z"/>
          <path class="cls-4" d="M64.4,91.12l-2.32,2.32h-5.05l-2.78-2.78h-17.05l-1.52,1.52H4.29l-6.55-6.42H-19.31l-1.52,1.52H-58.65v-.74H-21.13l.78-.78,.74-.74H-1.95l6.55,6.42h30.78l.78-.78,.74-.74h17.66l2.78,2.78h4.44l2.32-2.32h8.77l2.2-2.2c.11,.23,.29,.41,.52,.52l-2.42,2.42h-8.77Z"/>
          <path class="cls-4" d="M70.75,88.35c-.41,0-.74-.33-.74-.74s.33-.74,.74-.74,.74,.33,.74,.74-.33,.74-.74,.74m0,.74c-.82,0-1.48-.66-1.48-1.48s.66-1.48,1.48-1.48,1.48,.66,1.48,1.48-.66,1.48-1.48,1.48Z"/>
          <path class="cls-4" d="M68.67,86.05h-1.04l-2.66,2.66h-3.24l-2.66-2.66h-17.78l-3.42-3.42h-7.56l-1.52,1.52H7.2l-6.55-6.42H-18.74l-1.52,1.52H-55.74v-.74H-20.57l.78-.78,.74-.74H.96l6.55,6.42H28.49l1.52-1.52h8.17l3.42,3.42h17.78l2.66,2.66h2.63l2.66-2.66h1.65l1.35,1.35c-.23,.1-.42,.29-.52,.52l-1.13-1.13Z"/>
          <path class="cls-4" d="M63.35,86.2c-.41,0-.74-.33-.74-.74s.33-.74,.74-.74,.74,.33,.74,.74-.33,.74-.74,.74m0,.74c-.82,0-1.48-.66-1.48-1.48s.66-1.48,1.48-1.48,1.48,.66,1.48,1.48-.66,1.48-1.48,1.48Z"/>
          <path class="cls-4" d="M61.52,84.07h-19.35l-3.42-3.42h-10.13l-1.52,1.52H8.94l-6.55-6.42H-20.31l-1.52,1.52H-54.86v-.74H-22.14l.78-.78,.74-.74H2.69l6.55,6.42H26.79l1.52-1.52h10.75l3.42,3.42h19.35l1.35,1.35c-.23,.1-.42,.29-.52,.52l-1.13-1.13Z"/>
          <path class="cls-4" d="M59.08,90.84c-.41,0-.74-.33-.74-.74s.33-.74,.74-.74,.74,.33,.74,.74-.33,.74-.74,.74m0,.74c-.82,0-1.48-.66-1.48-1.48s.66-1.48,1.48-1.48,1.48,.66,1.48,1.48-.66,1.48-1.48,1.48Z"/>
          <path class="cls-4" d="M57.25,88.72h-17.29l-3.42-3.42h-5.32l-1.52,1.52H5.86l-6.55-6.42H-17.73l-1.52,1.52H-57.07v-.74H-19.56l.78-.78,.74-.74H-.38l6.55,6.42H29.39l1.52-1.52h5.93l3.42,3.42h17.29l1.35,1.35c-.23,.1-.42,.29-.52,.52l-1.13-1.13Z"/>
          <path class="cls-4" d="M33.88,89.13c-.41,0-.74-.33-.74-.74s.33-.74,.74-.74,.74,.33,.74,.74-.33,.74-.74,.74m0,.74c-.82,0-1.48-.66-1.48-1.48s.66-1.48,1.48-1.48,1.48,.66,1.48,1.48-.66,1.48-1.48,1.48Z"/>
          <path class="cls-4" d="M81.36,82.34c-.41,0-.74-.33-.74-.74s.33-.74,.74-.74,.74,.33,.74,.74-.33,.74-.74,.74m0,.74c-.82,0-1.48-.66-1.48-1.48s.66-1.48,1.48-1.48,1.48,.66,1.48,1.48-.66,1.48-1.48,1.48Z"/>
          <path class="cls-4" d="M87.3,80.86c-.41,0-.74,.33-.74,.74s.33,.74,.74,.74,.74-.33,.74-.74-.33-.74-.74-.74m0-.74c-.82,0-1.48,.66-1.48,1.48s.66,1.48,1.48,1.48,1.48-.66,1.48-1.48-.66-1.48-1.48-1.48Z"/>
          <polygon class="cls-4" points="-9.15 70.68 -10.96 70.68 -51.43 70.68 -51.43 69.94 -10.96 69.94 -9.15 69.94 -7.04 69.94 -4.13 72.8 2.17 72.8 4.5 72.8 6.1 72.8 12.14 78.79 16.3 78.79 20.77 78.79 24.94 78.79 26.15 77.63 28.37 77.63 30.08 77.63 41.54 77.63 43.94 79.97 52.57 79.97 54.2 79.97 55.4 81.14 64.03 81.14 69.2 81.14 71.97 83.92 78.73 83.92 80.6 82.05 80.91 82.79 79.04 84.66 71.67 84.66 68.89 81.88 64.03 81.88 55.09 81.88 53.89 80.71 52.57 80.71 43.63 80.71 41.24 78.37 30.08 78.37 28.37 78.37 26.45 78.37 25.25 79.53 20.77 79.53 16.3 79.53 11.83 79.53 5.79 73.53 4.5 73.53 2.17 73.53 -4.44 73.53 -7.34 70.68 -9.15 70.68"/>
          <polygon class="cls-4" points="-9.15 68.22 -9.95 68.22 -51.43 68.22 -51.43 67.49 -9.95 67.49 -9.15 67.49 -6.02 67.49 -3.12 70.34 3.57 70.34 5.52 70.34 7.5 70.34 13.53 76.33 15.78 76.33 22.17 76.33 24.42 76.33 25.63 75.17 28.37 75.17 30.08 75.17 41.54 75.17 43.94 77.52 45.36 77.52 52.57 77.52 54.81 77.52 56.44 79.09 60.7 79.09 65.07 79.09 71.27 79.09 73.52 81.32 76.57 81.32 76.78 81.32 79.55 78.54 84.97 78.54 86.79 80.36 86.48 81.09 84.67 79.28 79.86 79.28 77.08 82.05 76.57 82.05 73.21 82.05 70.96 79.83 65.07 79.83 60.7 79.83 56.13 79.83 54.51 78.25 52.57 78.25 45.36 78.25 43.63 78.25 41.24 75.91 30.08 75.91 28.37 75.91 25.93 75.91 24.73 77.07 22.17 77.07 15.78 77.07 13.23 77.07 7.19 71.08 5.52 71.08 3.57 71.08 -3.42 71.08 -6.33 68.22 -9.15 68.22"/>
          <path class="cls-4" d="M81.2,75.37c-.41,0-.74,.33-.74,.74s.33,.74,.74,.74,.74-.33,.74-.74-.33-.74-.74-.74m0-.74c-.82,0-1.48,.66-1.48,1.48s.66,1.48,1.48,1.48,1.48-.66,1.48-1.48-.66-1.48-1.48-1.48Z"/>
          <polygon class="cls-4" points="78.19 76.48 75.64 79.03 73.77 79.03 72.33 77.25 57.79 77.25 55.9 74.92 43.76 74.92 41.66 72.35 15.06 72.35 10.77 67.07 -1.12 67.07 -3.99 63.54 -45.23 63.54 -45.23 62.81 -3.64 62.81 -.77 66.33 11.13 66.33 15.41 71.61 42.01 71.61 44.11 74.19 56.25 74.19 58.14 76.51 72.68 76.51 74.13 78.29 75.33 78.29 77.88 75.74 80.2 75.74 80.2 76.48 78.19 76.48"/>
          <polygon class="cls-4" points="78.19 71.84 75.35 74.68 59.01 74.68 56.99 72.19 45.31 72.19 42.77 69.07 17.14 69.07 13.06 64.04 .18 64.04 -3.28 59.78 -44.53 59.78 -44.53 59.04 -2.93 59.04 .53 63.3 13.41 63.3 17.5 68.33 43.12 68.33 45.66 71.45 57.34 71.45 59.37 73.94 75.04 73.94 77.88 71.1 80.26 71.1 80.26 71.84 78.19 71.84"/>
          <path class="cls-4" d="M81.2,70.73c-.41,0-.74,.33-.74,.74s.33,.74,.74,.74,.74-.33,.74-.74-.33-.74-.74-.74m0-.74c-.82,0-1.48,.66-1.48,1.48s.66,1.48,1.48,1.48,1.48-.66,1.48-1.48-.66-1.48-1.48-1.48Z"/>
          <path class="cls-4" d="M87.3,75.37c-.41,0-.74,.33-.74,.74s.33,.74,.74,.74,.74-.33,.74-.74-.33-.74-.74-.74m0-.74c-.82,0-1.48,.66-1.48,1.48s.66,1.48,1.48,1.48,1.48-.66,1.48-1.48-.66-1.48-1.48-1.48Z"/>
          <path class="cls-4" d="M72.3,70.73c-.41,0-.74,.33-.74,.74s.33,.74,.74,.74,.74-.33,.74-.74-.33-.74-.74-.74m0-.74c-.82,0-1.48,.66-1.48,1.48s.66,1.48,1.48,1.48,1.48-.66,1.48-1.48-.66-1.48-1.48-1.48Z"/>
          <path class="cls-4" d="M66.82,70.73c-.41,0-.74,.33-.74,.74s.33,.74,.74,.74,.74-.33,.74-.74-.33-.74-.74-.74m0-.74c-.82,0-1.48,.66-1.48,1.48s.66,1.48,1.48,1.48,1.48-.66,1.48-1.48-.66-1.48-1.48-1.48Z"/>
          <polygon class="cls-4" points="54.38 59.82 25 59.82 21.04 54.94 9.53 54.94 5.11 49.5 -38.1 49.5 -38.1 48.76 5.46 48.76 9.88 54.2 21.39 54.2 25.35 59.08 54.73 59.08 64.5 71.1 65.81 71.1 65.81 71.84 64.15 71.84 54.38 59.82"/>
          <path class="cls-4" d="M59.45,69.36c-.41,0-.74,.33-.74,.74s.33,.74,.74,.74,.74-.33,.74-.74-.33-.74-.74-.74m0-.74c-.82,0-1.48,.66-1.48,1.48s.66,1.48,1.48,1.48,1.48-.66,1.48-1.48-.66-1.48-1.48-1.48Z"/>
          <polygon class="cls-4" points="57.58 68.38 47.84 68.38 46.19 66.3 20.11 66.3 16.15 61.42 4.64 61.42 .22 55.98 -42.99 55.98 -42.99 55.24 .57 55.24 4.99 60.68 16.5 60.68 20.46 65.56 46.55 65.56 48.2 67.64 57.93 67.64 59.06 69.03 58.49 69.5 57.58 68.38"/>
          <path class="cls-4" d="M51.14,63.97c-.41,0-.74,.33-.74,.74s.33,.74,.74,.74,.74-.33,.74-.74-.33-.74-.74-.74m0-.74c-.82,0-1.48,.66-1.48,1.48s.66,1.48,1.48,1.48,1.48-.66,1.48-1.48-.66-1.48-1.48-1.48Z"/>
          <polygon class="cls-4" points="49.31 62.99 23.23 62.99 19.27 58.12 7.76 58.12 3.34 52.68 -39.87 52.68 -39.87 51.94 3.69 51.94 8.11 57.38 19.62 57.38 23.58 62.25 49.67 62.25 50.78 63.65 50.2 64.11 49.31 62.99"/>
          <path class="cls-4" d="M35.87,54.67c-.41,0-.74,.33-.74,.74s.33,.74,.74,.74,.74-.33,.74-.74-.33-.74-.74-.74m0-.74c-.82,0-1.48,.66-1.48,1.48s.66,1.48,1.48,1.48,1.48-.66,1.48-1.48-.66-1.48-1.48-1.48Z"/>
          <path class="cls-4" d="M29.31,53.34h-3.63l-9.14-11.25H-14.63c-.82,0-1.48-.66-1.48-1.48s.66-1.48,1.48-1.48H-6.67c.41,0,.74-.33,.74-.74s-.33-.74-.74-.74h-9.41l-3.95,4.86h-20.33v-.74H-20.38l3.95-4.86H-6.67c.82,0,1.48,.66,1.48,1.48s-.66,1.48-1.48,1.48h-7.97c-.41,0-.74,.33-.74,.74s.33,.74,.74,.74H16.89l9.14,11.25h3.63l1.98,2.44h3.26v.74h-3.61l-1.98-2.44Z"/>
          <path class="cls-4" d="M27.16,55.65c-.41,0-.74,.33-.74,.74s.33,.74,.74,.74,.74-.33,.74-.74-.33-.74-.74-.74m0-.74c-.82,0-1.48,.66-1.48,1.48s.66,1.48,1.48,1.48,1.48-.66,1.48-1.48-.66-1.48-1.48-1.48Z"/>
          <polygon class="cls-4" points="15.78 45.51 -36.91 45.51 -36.91 44.77 16.13 44.77 25.27 56.02 26.23 56.02 26.23 56.76 24.92 56.76 15.78 45.51"/>
          <path class="cls-4" d="M81.2,65.13c-.41,0-.74,.33-.74,.74s.33,.74,.74,.74,.74-.33,.74-.74-.33-.74-.74-.74m0-.74c-.82,0-1.48,.66-1.48,1.48s.66,1.48,1.48,1.48,1.48-.66,1.48-1.48-.66-1.48-1.48-1.48Z"/>
          <polygon class="cls-4" points="9.48 32.57 -36.96 32.57 -36.61 31.83 9.83 31.83 11.82 34.27 15.11 34.27 15.11 35.01 11.47 35.01 9.48 32.57"/>
          <path class="cls-4" d="M87.3,64.92c-.41,0-.74,.33-.74,.74s.33,.74,.74,.74,.74-.33,.74-.74-.33-.74-.74-.74m0-.74c-.82,0-1.48,.66-1.48,1.48s.66,1.48,1.48,1.48,1.48-.66,1.48-1.48-.66-1.48-1.48-1.48Z"/>
          <polygon class="cls-4" points="37.14 46.33 43.44 46.33 47.4 51.21 59.73 51.21 69.68 63.46 77.2 63.46 79.36 60.81 81.58 60.81 85.22 65.29 86.4 65.29 86.4 66.02 84.87 66.02 81.23 61.55 79.71 61.55 77.55 64.2 69.33 64.2 59.37 51.95 47.05 51.95 43.09 47.07 36.79 47.07 26.99 35.01 13.26 35.01 13.26 34.27 27.34 34.27 37.14 46.33"/>
          <path class="cls-4" d="M75.97,59.45c-.41,0-.74,.33-.74,.74s.33,.74,.74,.74,.74-.33,.74-.74-.33-.74-.74-.74m0-.74c-.82,0-1.48,.66-1.48,1.48s.66,1.48,1.48,1.48,1.48-.66,1.48-1.48-.66-1.48-1.48-1.48Z"/>
          <path class="cls-4" d="M92.51,64.92c-.41,0-.74,.33-.74,.74s.33,.74,.74,.74,.74-.33,.74-.74-.33-.74-.74-.74m0-.74c-.82,0-1.48,.66-1.48,1.48s.66,1.48,1.48,1.48,1.48-.66,1.48-1.48-.66-1.48-1.48-1.48Z"/>
          <polygon class="cls-4" points="85.8 57.98 69.3 57.98 61.38 48.24 53.9 48.24 53.9 33.43 42.74 19.69 42.74 10.9 29.4 -5.51 29.97 -5.98 43.48 10.64 43.48 19.43 54.64 33.17 54.64 47.5 61.73 47.5 69.65 57.24 86.15 57.24 92.17 64.65 91.6 65.12 85.8 57.98"/>
          <path class="cls-4" d="M82.24,40.06c-.41,0-.74,.33-.74,.74s.33,.74,.74,.74,.74-.33,.74-.74-.33-.74-.74-.74m0-.74c-.82,0-1.48,.66-1.48,1.48s.66,1.48,1.48,1.48,1.48-.66,1.48-1.48-.66-1.48-1.48-1.48Z"/>
          <path class="cls-4" d="M50.74,14.42l10.26,12.62v11.47h7.09l7.92,9.75h16.5l5.27,6.48v30.72s3.11,3.83,3.11,3.83l-.57,.47-3.27-4.03v-30.72s-4.88-6-4.88-6h-16.5l-7.92-9.75h-7.48v-11.94l-10.26-12.62V3.03l-14.24-17.53,.57-.47L50.74,2.76V14.42Zm2.08-2.5l10.26,12.62v11.47h7.09l7.92,9.75h16.5l5.27,6.48v30.72l3.11,3.83-.57,.47-3.27-4.03v-30.72l-4.88-6h-16.5l-7.92-9.75h-7.48v-11.94l-10.26-12.62V.53l-14.24-17.53,.57-.47L52.82,.26V11.92Zm2.29-2.5l10.26,12.62v11.47h7.09l7.92,9.75h16.5l5.27,6.48v30.72s3.11,3.83,3.11,3.83l-.57,.47-3.27-4.03v-30.72s-4.88-6-4.88-6h-16.5l-7.92-9.75h-7.48v-11.94l-10.26-12.62V-1.97l-14.24-17.53,.57-.47L55.12-2.24V9.42Zm-6.31,7.61l10.26,12.62v11.47h7.09l7.92,9.75h16.5l5.27,6.48v30.72l3.11,3.83-.57,.47-3.27-4.03v-30.72l-4.88-6h-16.5l-7.92-9.75h-7.48v-11.94l-10.26-12.62V5.63l-14.24-17.53,.57-.47L48.81,5.37v11.66Z"/>
          <path class="cls-4" d="M91.06,70.51c-.41,0-.74,.33-.74,.74s.33,.74,.74,.74,.74-.33,.74-.74-.33-.74-.74-.74m0-.74c-.82,0-1.48,.66-1.48,1.48s.66,1.48,1.48,1.48,1.48-.66,1.48-1.48-.66-1.48-1.48-1.48Z"/>
          <path class="cls-4" d="M38.73,42.53c-.41,0-.74,.33-.74,.74s.33,.74,.74,.74,.74-.33,.74-.74-.33-.74-.74-.74m0-.74c-.82,0-1.48,.66-1.48,1.48s.66,1.48,1.48,1.48,1.48-.66,1.48-1.48-.66-1.48-1.48-1.48Z"/>
          <path class="cls-4" d="M48.68,46.65c-.41,0-.74,.33-.74,.74s.33,.74,.74,.74,.74-.33,.74-.74-.33-.74-.74-.74m0-.74c-.82,0-1.48,.66-1.48,1.48s.66,1.48,1.48,1.48,1.48-.66,1.48-1.48-.66-1.48-1.48-1.48Z"/>
          <polygon class="cls-4" points="48.31 44.81 39.99 34.58 39.99 31.76 27.35 16.21 -45.43 16.21 -45.43 15.47 27.7 15.47 40.73 31.5 40.73 34.31 49.05 44.55 49.05 46.28 48.31 46.28 48.31 44.81"/>
          <path class="cls-4" d="M6.33,35.2H-37.48v-.74H6.33c.82,0,1.48,.66,1.48,1.48s-.66,1.48-1.48,1.48H-1.64c-.41,0-.74,.33-.74,.74s.33,.74,.74,.74H22.92l9.8,12.06h6.3l3.96,4.88h12.32l9.96,12.25h19.88v4.79l1.99,2.45-.57,.47-2.15-2.65v-4.31h-19.49l-9.96-12.25h-12.32l-3.96-4.88h-6.3l-9.8-12.06H-1.64c-.82,0-1.48-.66-1.48-1.48s.66-1.48,1.48-1.48H6.33c.41,0,.74-.33,.74-.74s-.33-.74-.74-.74"/>
          <polygon class="cls-4" points="30.2 33.35 15.34 33.35 12.02 29.26 -38.19 29.26 -38.19 28.53 12.37 28.53 15.69 32.62 30.55 32.62 38.38 42.25 37.8 42.71 30.2 33.35"/>
          <polygon class="cls-4" points="32.26 30.93 16.41 30.93 13.09 26.84 -37.12 26.84 -37.12 26.11 13.44 26.11 16.76 30.2 32.61 30.2 38.38 37.3 37.81 37.76 32.26 30.93"/>
          <polygon class="cls-4" points="26.74 20.43 11.23 20.43 9.06 22.59 -42.95 22.59 -42.95 21.85 8.76 21.85 10.92 19.69 27.09 19.69 32.02 25.75 31.45 26.22 26.74 20.43"/>
          <path class="cls-4" d="M38.72,37.57c-.41,0-.74,.33-.74,.74s.33,.74,.74,.74,.74-.33,.74-.74-.33-.74-.74-.74m0-.74c-.82,0-1.48,.66-1.48,1.48s.66,1.48,1.48,1.48,1.48-.66,1.48-1.48-.66-1.48-1.48-1.48Z"/>
          <path class="cls-4" d="M22.31,23.66c-.41,0-.74,.33-.74,.74s.33,.74,.74,.74,.74-.33,.74-.74-.33-.74-.74-.74m0-.74c-.82,0-1.48,.66-1.48,1.48s.66,1.48,1.48,1.48,1.48-.66,1.48-1.48-.66-1.48-1.48-1.48Z"/>
          <rect class="cls-8" x="-42.13" y="24.03" width="63.43" height=".74"/>
          <path class="cls-4" d="M32.35,26c-.41,0-.74,.33-.74,.74s.33,.74,.74,.74,.74-.33,.74-.74-.33-.74-.74-.74m0-.74c-.82,0-1.48,.66-1.48,1.48s.66,1.48,1.48,1.48,1.48-.66,1.48-1.48-.66-1.48-1.48-1.48Z"/>
          <path class="cls-4" d="M6.58,17.84c-.41,0-.74,.33-.74,.74s.33,.74,.74,.74,.74-.33,.74-.74-.33-.74-.74-.74m0-.74c-.82,0-1.48,.66-1.48,1.48s.66,1.48,1.48,1.48,1.48-.66,1.48-1.48-.66-1.48-1.48-1.48Z"/>
          <path class="cls-4" d="M43.46,32c-.41,0-.74,.33-.74,.74s.33,.74,.74,.74,.74-.33,.74-.74-.33-.74-.74-.74m0-.74c-.82,0-1.48,.66-1.48,1.48s.66,1.48,1.48,1.48,1.48-.66,1.48-1.48-.66-1.48-1.48-1.48Z"/>
          <path class="cls-4" d="M49.6,34.89c-.41,0-.74,.33-.74,.74s.33,.74,.74,.74,.74-.33,.74-.74-.33-.74-.74-.74m0-.74c-.82,0-1.48,.66-1.48,1.48s.66,1.48,1.48,1.48,1.48-.66,1.48-1.48-.66-1.48-1.48-1.48Z"/>
          <polygon class="cls-4" points="43.09 30.75 34.38 20.04 34.38 11.71 26.28 1.74 4.61 1.74 -.1 7.53 -16.27 7.53 -18.43 5.37 -70.14 5.37 -70.14 4.63 -18.13 4.63 -15.96 6.79 -.45 6.79 4.26 1 26.63 1 35.12 11.45 35.12 19.78 43.83 30.49 43.83 31.93 43.09 31.93 43.09 30.75"/>
          <polygon class="cls-4" points="-1.13 3.19 -14.33 3.19 -16.49 1.02 -68.5 1.02 -68.5 1.76 -16.8 1.76 -14.63 3.92 -.78 3.92 3.93 -1.87 28.97 -1.87 40.53 12.36 40.53 22.93 49.23 33.64 49.23 34.82 49.97 34.82 49.97 33.38 41.27 22.67 41.27 12.1 29.32 -2.61 3.58 -2.61 -1.13 3.19"/>
          <path class="cls-4" d="M64.28,15.81c-.41,0-.74,.33-.74,.74s.33,.74,.74,.74,.74-.33,.74-.74-.33-.74-.74-.74m0-.74c-.82,0-1.48,.66-1.48,1.48s.66,1.48,1.48,1.48,1.48-.66,1.48-1.48-.66-1.48-1.48-1.48Z"/>
          <polygon class="cls-4" points="60 6.06 68.31 16.29 68.31 19.11 74.46 26.67 74.46 27.84 67.58 19.37 67.58 16.55 59.26 6.32 59.26 4.58 60 4.58 60 6.06"/>
          <polygon class="cls-4" points="57.56 8.86 57.56 -21.57 58.3 -21.57 58.3 8.6 63.92 15.52 63.35 15.98 57.56 8.86"/>
          <path class="cls-4" d="M79.78,36.5c-.41,0-.74,.33-.74,.74s.33,.74,.74,.74,.74-.33,.74-.74-.33-.74-.74-.74m0-.74c-.82,0-1.48,.66-1.48,1.48s.66,1.48,1.48,1.48,1.48-.66,1.48-1.48-.66-1.48-1.48-1.48Z"/>
          <path class="cls-4" d="M79.41,36.23V15.89c0-.82,.66-1.48,1.48-1.48s1.48,.66,1.48,1.48v7.97c0,.41,.33,.74,.74,.74s.74-.33,.74-.74V14.44l-4.86-3.95V-9.83h.74V10.14l4.86,3.95v9.76c0,.82-.66,1.48-1.48,1.48s-1.48-.66-1.48-1.48v-7.97c0-.41-.33-.74-.74-.74s-.74,.33-.74,.74v20.34h-.74Z"/>
          <path class="cls-4" d="M86.3,36.85V-6.95h.74V36.85c0,.82-.66,1.48-1.48,1.48s-1.48-.66-1.48-1.48v-7.97c0-.41-.33-.74-.74-.74s-.74,.33-.74,.74v11.09l-.74-.35v-10.74c0-.82,.66-1.48,1.48-1.48s1.48,.66,1.48,1.48v7.97c0,.41,.33,.74,.74,.74s.74-.33,.74-.74"/>
          <path class="cls-4" d="M75.2,26.52c-.41,0-.74,.33-.74,.74s.33,.74,.74,.74,.74-.33,.74-.74-.33-.74-.74-.74m0-.74c-.82,0-1.48,.66-1.48,1.48s.66,1.48,1.48,1.48,1.48-.66,1.48-1.48-.66-1.48-1.48-1.48Z"/>
          <polygon class="cls-4" points="89.37 38.29 91.39 40.77 107.89 40.77 113.15 47.25 113.15 77.97 116.26 81.79 115.69 82.26 112.41 78.23 112.41 47.51 107.53 41.5 91.03 41.5 88.63 38.55 88.63 -.42 89.37 -.42 89.37 38.29"/>
          <polygon class="cls-4" points="77.5 17.13 77.5 1.62 75.34 -.54 75.34 -52.56 76.08 -52.56 76.08 -.85 78.24 1.31 78.24 17.48 75.82 19.45 75.35 18.88 77.5 17.13"/>
          <path class="cls-4" d="M75.57,19.77c0-.41-.33-.74-.74-.74s-.74,.33-.74,.74,.33,.74,.74,.74,.74-.33,.74-.74m.74,0c0-.82-.66-1.48-1.48-1.48s-1.48,.66-1.48,1.48,.66,1.48,1.48,1.48,1.48-.66,1.48-1.48Z"/>
          <polygon class="cls-4" points="64.4 95.13 62.08 97.45 57.03 97.45 54.25 94.67 37.2 94.67 35.68 96.19 4.29 96.19 -2.26 89.78 -19.31 89.78 -20.83 91.3 -58.65 91.3 -58.65 90.56 -21.13 90.56 -20.35 89.78 -19.61 89.04 -1.95 89.04 4.6 95.46 35.37 95.46 36.16 94.67 36.9 93.93 54.56 93.93 57.33 96.71 61.78 96.71 64.1 94.39 64.1 94.39 64.1 94.39 75.84 94.39 79.76 90.47 84.27 90.47 90.69 84.04 90.69 72.31 91.43 72.31 91.43 84.35 84.57 91.21 80.07 91.21 76.15 95.13 64.4 95.13"/>
          <path class="cls-4" d="M96.02,36.66c0-.41,.33-.74,.74-.74s.74,.33,.74,.74-.33,.74-.74,.74-.74-.33-.74-.74m-.74,0c0-.82,.66-1.48,1.48-1.48s1.48,.66,1.48,1.48-.66,1.48-1.48,1.48-1.48-.66-1.48-1.48Z"/>
          <path class="cls-4" d="M93.36,25.02l-2.32-2.32v-5.05l2.78-2.78V-2.18l-1.52-1.52v-31.39l6.42-6.55v-17.05l-1.52-1.52v-37.82h.74V-60.52l.78,.78,.74,.74v17.66l-6.42,6.55V-4.01l.78,.78,.74,.74V15.17l-2.78,2.78v4.44l2.32,2.32v8.77l2.2,2.2c-.23,.11-.41,.29-.52,.52l-2.42-2.42v-8.77Z"/>
          <path class="cls-4" d="M95.49,31.76c0-.41,.33-.74,.74-.74s.74,.33,.74,.74-.33,.74-.74,.74-.74-.33-.74-.74m-.74,0c0-.82,.66-1.48,1.48-1.48s1.48,.66,1.48,1.48-.66,1.48-1.48,1.48-1.48-.66-1.48-1.48Z"/>
          <polygon class="cls-4" points="95.78 30.8 95.78 22.34 98.44 19.69 98.44 1.91 101.86 -1.51 101.86 -9.07 100.34 -10.59 100.34 -32.19 106.75 -38.73 106.75 -58.12 105.23 -59.65 105.23 -95.12 105.97 -95.12 105.97 -59.95 106.75 -59.17 107.49 -58.43 107.49 -38.43 101.08 -31.88 101.08 -10.89 102.6 -9.37 102.6 -1.2 99.18 2.22 99.18 19.99 96.52 22.65 96.52 30.49 95.78 30.8"/>
          <path class="cls-4" d="M93.64,19.69c0-.41,.33-.74,.74-.74s.74,.33,.74,.74-.33,.74-.74,.74-.74-.33-.74-.74m-.74,0c0-.82,.66-1.48,1.48-1.48s1.48,.66,1.48,1.48-.66,1.48-1.48,1.48-1.48-.66-1.48-1.48Z"/>
          <path class="cls-4" d="M95.77,17.87V.58l3.42-3.42v-5.32l-1.52-1.52v-23.84l6.42-6.55v-17.05l-1.52-1.52v-37.82h.74V-58.94l.78,.78,.74,.74v17.66l-6.42,6.55V-9.99l1.52,1.52V-2.54l-3.42,3.42V18.17l-1.35,1.35c-.1-.23-.29-.42-.52-.52l1.13-1.13Z"/>
          <path class="cls-4" d="M27.94,11.38c-.41,0-.74,.33-.74,.74s.33,.74,.74,.74,.74-.33,.74-.74-.33-.74-.74-.74m0-.74c-.82,0-1.48,.66-1.48,1.48s.66,1.48,1.48,1.48,1.48-.66,1.48-1.48-.66-1.48-1.48-1.48Z"/>
          <polygon class="cls-4" points="1.98 12.57 10.61 12.57 15.78 12.57 18.56 9.8 25.32 9.8 27.18 11.66 27.49 10.92 25.62 9.06 18.25 9.06 15.47 11.84 10.61 11.84 1.67 11.84 1.98 12.57"/>
          <polygon class="cls-4" points="74.58 12.62 74.58 -2.9 72.42 -5.06 72.42 -57.07 73.16 -57.07 73.16 -5.36 75.32 -3.2 75.32 12.97 72.9 14.94 72.44 14.36 74.58 12.62"/>
          <path class="cls-4" d="M72.65,15.26c0-.41-.33-.74-.74-.74s-.74,.33-.74,.74,.33,.74,.74,.74,.74-.33,.74-.74m.74,0c0-.82-.66-1.48-1.48-1.48s-1.48,.66-1.48,1.48,.66,1.48,1.48,1.48,1.48-.66,1.48-1.48Z"/>
          <polygon class="cls-4" points="71.74 8.1 71.74 -7.41 69.57 -9.57 69.57 -61.59 70.31 -61.59 70.31 -9.88 72.47 -7.72 72.47 8.45 70.05 10.42 69.59 9.85 71.74 8.1"/>
          <path class="cls-4" d="M69.81,10.75c0-.41-.33-.74-.74-.74s-.74,.33-.74,.74,.33,.74,.74,.74,.74-.33,.74-.74m.74,0c0-.82-.66-1.48-1.48-1.48s-1.48,.66-1.48,1.48,.66,1.48,1.48,1.48,1.48-.66,1.48-1.48Z"/>
          <path class="cls-4" d="M92.51,86.71c-.41,0-.74,.33-.74,.74s.33,.74,.74,.74,.74-.33,.74-.74-.33-.74-.74-.74m0-.74c-.82,0-1.48,.66-1.48,1.48s.66,1.48,1.48,1.48,1.48-.66,1.48-1.48-.66-1.48-1.48-1.48Z"/>
          <polygon class="cls-4" points="64.82 97.23 62.49 99.55 56.42 99.55 53.65 96.78 36.6 96.78 35.08 98.3 3.69 98.3 -2.86 91.88 -18.66 91.88 -20.18 93.4 -59.25 93.4 -59.25 92.66 -20.49 92.66 -19.7 91.88 -18.96 91.14 -2.56 91.14 3.99 97.56 34.77 97.56 35.56 96.78 36.29 96.04 53.95 96.04 56.73 98.81 62.19 98.81 64.51 96.49 64.51 96.49 64.51 96.49 78.65 96.49 80.61 94.53 85.12 94.53 91.54 88.11 92.28 88.41 85.42 95.27 80.92 95.27 78.96 97.23 64.82 97.23"/>
        </g>
        <path class="cls-3" d="M93.26,46.88V20.63c0-2.26-1.16-4.26-2.91-5.45,0,0-.01-.01-.02-.02,0,0-.02-.01-.02-.02,0,0-.02-.01-.02-.02,0,0-.01-.01-.02-.02,0,0-.02-.01-.02-.02,0,0-.01-.01-.02-.02,0,0-.02-.01-.02-.02,0,0-.02-.01-.02-.02,0,0-.02-.01-.02-.02,0,0-.02-.01-.02-.02,0,0-.02-.01-.02-.02,0,0-.01-.01-.02-.02,0,0-.02-.01-.02-.02,0,0-.01-.01-.02-.02,0,0-.02-.01-.02-.02,0,0-.02-.01-.02-.02,0,0-.01-.01-.02-.02,0,0-.02-.01-.02-.02,0,0-.02-.01-.02-.02,0,0-.01-.01-.02-.02,0,0-.02-.01-.02-.02,0,0-.01-.01-.02-.02,0,0-.02-.01-.02-.02,0,0-.02-.01-.02-.02,0,0-.01-.01-.02-.02,0,0-.02-.01-.02-.02,0,0-.01-.01-.02-.02,0,0-.02-.01-.02-.02,0,0-.02-.01-.02-.02,0,0-.01-.01-.02-.02,0,0-.02-.01-.02-.02,0,0-.02-.01-.02-.02,0,0-.01-.01-.02-.02,0,0-.02-.01-.02-.02,0,0-.01-.01-.02-.02,0,0-.02-.01-.02-.02,0,0-.02-.01-.02-.02,0,0-.01-.01-.02-.02,0,0-.02-.01-.02-.02,0,0-.02-.01-.02-.02,0,0-.02-.01-.02-.02,0,0-.02-.01-.02-.02,0,0-.02-.01-.02-.02,0,0-.02-.01-.02-.02,0,0-.02-.01-.02-.02,0,0-.01-.01-.02-.02,0,0-.02-.01-.02-.02,0,0-.01-.01-.02-.02,0,0-.02-.01-.02-.02,0,0-.02-.01-.02-.02,0,0-.01-.01-.02-.02,0,0-.02-.01-.02-.02,0,0-.02-.01-.02-.02,0,0-.01-.01-.02-.02,0,0-.02-.01-.02-.02,0,0-.01-.01-.02-.02,0,0-.02-.01-.02-.02,0,0-.02-.01-.02-.02,0,0-.01-.01-.02-.02,0,0-.02-.01-.02-.02-1.05-.71-2.32-1.13-3.67-1.13h-22.97c-3.61,0-6.56,2.96-6.56,6.56v26.25h.02v.02h.02v.02h.02v.02h.02v.02h.02v.02h.02v.02h.02v.02h.02v.02h.02v.02h.02v.02h.02v.02h.02v.02h.02v.02h.02v.02h.02v.02h.02v.02h.02v.02h.02v.02h.02v.02h.02v.02h.02v.02h.02v.02h.02v.02h.02v.02h.02v.02h.02v.02h.02v.02h.02v.02h.02v.02h.02v.02h.02v.02h.02v.02h.02v.02h.02v.02h.02v.02h.02v.02h.02v.02h.02v.02h.02v.02h.02v.02h.02v.02h.02v.02h.02v.02h.02v.02h.02v.02h.02v.02h.02v.02h.02v.02h.02v.02h.02v.02h.02v.02h.02v.02h.02v.02h.02v.02h.02v.02h.02v.02h.02v.02h.02v.02h.02v.02h.02v.02h.02v.02l28.14,16.19v22.24h-21.58v-21.53h-.02v-.02h-.02v-.02h-.02v-.02h-.02v-.02h-.02v-.02h-.02v-.02h-.02v-.02h-.02v-.02h-.02v-.02h-.02v-.02h-.02v-.02h-.02v-.02h-.02v-.02h-.02v-.02h-.02v-.02h-.02v-.02h-.02v-.02h-.02v-.02h-.02v-.02h-.02v-.02h-.02v-.02h-.02v-.02h-.02v-.02h-.02v-.02h-.02v-.02h-.02v-.02h-.02v-.02h-.02v-.02h-.02v-.02h-.02v-.02h-.02v-.02h-.02v-.02h-.02v-.02h-.02v-.02h-.02v-.02h-.02v-.02h-.02v-.02h-.02v-.02h-.02v-.02h-.02v-.02h-.02v-.02h-.02v-.02h-.02v-.02h-.02v-.02h-.02v-.02h-.02v-.02h-.02v-.02h-.02v-.02h-.02v-.02h-.02v-.02h-.02v-.02h-.02v-.02h-.02v-.02h-.02v-.02h-.02v-.02h-.02v-.02h-.02v-.02h-.02v-.02h-.02v-.02h-.02v-.02h-.02v-.02l-6.56-3.77v26.25c0,2.26,1.16,4.26,2.91,5.44,0,0,.01,.01,.02,.02,0,0,.02,.01,.02,.02,0,0,.02,.01,.02,.02,0,0,.02,.01,.02,.02,0,0,.02,.01,.02,.02,0,0,.01,.01,.02,.02,0,0,.02,.01,.02,.02,0,0,.02,.01,.02,.02,0,0,.01,.01,.02,.02,0,0,.02,.01,.02,.02,0,0,.01,.01,.02,.02,0,0,.02,.01,.02,.02,0,0,.02,.01,.02,.02,0,0,.01,.01,.02,.02,0,0,.02,.01,.02,.02,0,0,.02,.01,.02,.02,0,0,.01,.01,.02,.02,0,0,.02,.01,.02,.02,0,0,.01,.01,.02,.01,0,0,.02,.01,.02,.02,0,0,.02,.01,.02,.02,0,0,.01,.01,.02,.02,0,0,.02,.01,.02,.02,0,0,.01,.01,.02,.02,0,0,.02,.01,.02,.02,0,0,.02,.01,.02,.02,0,0,.01,.01,.02,.02,0,0,.02,.01,.02,.02,0,0,.02,.01,.02,.02,0,0,.01,.01,.02,.02,0,0,.02,.01,.02,.02,0,0,.01,.01,.02,.02,0,0,.02,.01,.02,.02,0,0,.02,.01,.02,.02,0,0,.01,.01,.02,.02,0,0,.02,.01,.02,.02,0,0,.02,.01,.02,.02,0,0,.01,.01,.02,.02,0,0,.02,.01,.02,.02,0,0,.01,.01,.02,.02,0,0,.02,.01,.02,.02,0,0,.02,.01,.02,.02,0,0,.02,.01,.02,.02,0,0,.02,.01,.02,.02,0,0,.01,.01,.02,.02,0,0,.02,.01,.02,.02,0,0,.02,.01,.02,.02,0,0,.01,.01,.02,.02,0,0,.02,.01,.02,.02,0,0,.02,.01,.02,.02,0,0,.01,.01,.02,.02,0,0,.02,.01,.02,.02,0,0,.01,.01,.02,.02,0,0,.02,.01,.02,.02,0,0,.02,.01,.02,.02,0,0,.01,.01,.02,.02,0,0,.02,.01,.02,.02,0,0,.02,.01,.02,.02,0,0,.02,.01,.02,.02,0,0,.02,.01,.02,.02,1.05,.71,2.32,1.13,3.67,1.13h22.97c3.61,0,6.56-2.95,6.56-6.56v-26.25h-.02v-.02h-.02v-.02h-.02v-.02h-.02v-.02h-.02v-.02h-.02v-.02h-.02v-.02h-.02v-.02h-.02v-.02h-.02v-.02h-.02v-.02h-.02v-.02h-.02v-.02h-.02v-.02h-.02v-.02h-.02v-.02h-.02v-.02h-.02v-.02h-.02v-.02h-.02v-.02h-.02v-.02h-.02v-.02h-.02v-.02h-.02v-.02h-.02v-.02h-.02v-.02h-.02v-.02h-.02v-.02h-.02v-.02h-.02v-.02h-.02v-.02h-.02v-.02h-.02v-.02h-.02v-.02h-.02v-.02h-.02v-.02h-.02v-.02h-.02v-.02h-.02v-.02h-.02v-.02h-.02v-.02h-.02v-.02h-.02v-.02h-.02v-.02h-.02v-.02h-.02v-.02h-.02v-.02h-.02v-.02h-.02v-.02h-.02v-.02h-.02v-.02h-.02v-.02h-.02v-.02h-.02v-.02h-.02v-.02h-.02v-.02h-.02v-.02h-.02v-.02h-.02v-.02h-.02v-.02h-.02v-.02l-28.14-16.19V20.63h21.58v21.53h.02v.02h.02v.02h.02v.02h.02v.02h.02v.02h.02v.02h.02v.02h.02v.02h.02v.02h.02v.02h.02v.02h.02v.02h.02v.02h.02v.02h.02v.02h.02v.02h.02v.02h.02v.02h.02v.02h.02v.02h.02v.02h.02v.02h.02v.02h.02v.02h.02v.02h.02v.02h.02v.02h.02v.02h.02v.02h.02v.02h.02v.02h.02v.02h.02v.02h.02v.02h.02v.02h.02v.02h.02v.02h.02v.02h.02v.02h.02v.02h.02v.02h.02v.02h.02v.02h.02v.02h.02v.02h.02v.02h.02v.02h.02v.02h.02v.02h.02v.02h.02v.02h.02v.02h.02v.02h.02v.02h.02v.02h.02v.02h.02v.02h.02v.02h.02v.02h.02v.02h.02v.02l6.56,3.78Z"/>
        <path class="cls-2" d="M106.39,43.1V.94h-.02v-.02h-.02v-.02h-.02v-.02h-.02v-.02h-.02v-.02h-.02v-.02h-.02v-.02h-.02v-.02h-.02v-.02h-.02v-.02h-.02v-.02h-.02v-.02h-.02v-.02h-.02v-.02h-.02v-.02h-.02v-.02h-.02v-.02h-.02v-.02h-.02v-.02h-.02v-.02h-.02v-.02h-.02v-.02h-.02v-.02h-.02v-.02h-.02v-.02h-.02v-.02h-.02v-.02h-.02v-.02h-.02v-.02h-.02v-.02h-.02v-.02h-.02v-.02h-.02v-.02h-.02v-.02h-.02v-.02h-.02v-.02h-.02v-.02h-.02v-.02h-.02v-.02h-.02v-.02h-.02v-.02h-.02v-.02h-.02v-.02h-.02v-.02h-.02v-.02h-.02v-.02h-.02v-.02h-.02v-.02h-.02v-.02h-.02v-.02h-.02v-.02h-.02v-.02h-.02v-.02h-.02v-.02h-.02v-.02h-.02v-.02h-.02v-.02h-.02v-.02h-.02v-.02h-.02V.02h-.02v-.02H6.56V.17s-.01,0-.01,0v.15s0,0,0,0L0,105H.02s0,.02,0,.02h.02s0,.02,0,.02h.02s0,.02,0,.02h.02s0,.02,0,.02h.02s0,.02,0,.02h.02s0,.02,0,.02h.02s0,.02,0,.02h.02s0,.02,0,.02h.02s0,.02,0,.02h.02s0,.02,0,.02h.02s0,.02,0,.02h.02s0,.02,0,.02h.02s0,.02,0,.02h.02s0,.02,0,.02h.02s0,.02,0,.02h.02s0,.02,0,.02h.02s0,.02,0,.02h.02s0,.02,0,.02h.02s0,.02,0,.02h.02s0,.02,0,.02h.02s0,.02,0,.02h.02s0,.02,0,.02h.02s0,.02,0,.02h.02s0,.02,0,.02h.02s0,.02,0,.02h.02s0,.02,0,.02h.02s0,.02,0,.02h.02s0,.02,0,.02h.02s0,.02,0,.02h.02s0,.02,0,.02h.02s0,.02,0,.02h.02s0,.02,0,.02h.02s0,.02,0,.02h.02s0,.02,0,.02h.02s0,.02,0,.02h.02s0,.02,0,.02h.02s0,.02,0,.02h.02s0,.02,0,.02h.02s0,.02,0,.02h.02s0,.02,0,.02h.02s0,.02,0,.02h.02s0,.02,0,.02h.02s0,.02,0,.02h.02s0,.02,0,.02h.02s0,.02,0,.02h.02s0,.02,0,.02h.02s0,.02,0,.02h.02s0,.02,0,.02h.02s0,.02,0,.02h.02s0,.02,0,.02h.02s0,.02,0,.02h.02s0,.02,0,.02h.02s0,.02,0,.02h.02s0,.02,0,.02h.02s0,.02,0,.02h.02s0,.02,0,.02h.02s0,.02,0,.02h.02s0,.02,0,.02h.02s0,.02,0,.02h.02s0,.02,0,.02h.02v.02s97.05,0,97.05,0c7.88,.16,7.95-7.5,7.95-7.5v-30.88l-1.41-.81,.02-.13-6.56-3.78v22.48c0,7.22-5.91,13.12-13.12,13.12H19.69c-2.41,0-4.68-.66-6.62-1.81-3.1-2.41-5.11-6.16-5.11-10.37V20.63c0-7.22,5.91-13.12,13.13-13.12H86.7c2.41,0,4.68,.66,6.62,1.81,3.1,2.41,5.11,6.16,5.11,10.37v26.25h.02s0,.02,0,.02h.02s0,.02,0,.02h.02s0,.02,0,.02h.02s0,.02,0,.02h.02s0,.02,0,.02h.02s0,.02,0,.02h.02s0,.02,0,.02h.02s0,.02,0,.02h.02s0,.02,0,.02h.02s0,.02,0,.02h.02s0,.02,0,.02h.02s0,.02,0,.02h.02s0,.02,0,.02h.02s0,.02,0,.02h.02s0,.02,0,.02h.02s0,.02,0,.02h.02s0,.02,0,.02h.02s0,.02,0,.02h.02s0,.02,0,.02h.02s0,.02,0,.02h.02s0,.02,0,.02h.02s0,.02,0,.02h.02s0,.02,0,.02h.02s0,.02,0,.02h.02s0,.02,0,.02h.02s0,.02,0,.02h.02s0,.02,0,.02h.02s0,.02,0,.02h.02s0,.02,0,.02h.02s0,.02,0,.02h.02s0,.02,0,.02h.02s0,.02,0,.02h.02s0,.02,0,.02h.02s0,.02,0,.02h.02s0,.02,0,.02h.02s0,.02,0,.02h.02s0,.02,0,.02h.02s0,.02,0,.02h.02s0,.02,0,.02h.02s0,.02,0,.02h.02s0,.02,0,.02h.02s0,.02,0,.02h.02s0,.02,0,.02h.02s0,.02,0,.02h.02s0,.02,0,.02h.02s0,.02,0,.02h.02s0,.02,0,.02h.02s0,.02,0,.02h.02s0,.02,0,.02h.02s0,.02,0,.02h.02s0,.02,0,.02h.02s0,.02,0,.02h.02s0,.02,0,.02h.02s0,.02,0,.02h.02s0,.02,0,.02h.02s0,.02,0,.02h.02s0,.02,0,.02h.02s0,.02,0,.02h.02s0,.02,0,.02h.02s0,.02,0,.02h.02s0,.02,0,.02l6.56-3.78ZM13.13,101.72H4.67v-8.46l8.46,8.46Z"/>
        <path class="cls-7" d="M47.7,15.18s-.02-.01-.02-.02c0,0-.02-.01-.02-.02,0,0-.02-.01-.02-.02,0,0-.02-.01-.02-.02,0,0-.02-.01-.02-.02,0,0-.02-.01-.02-.02,0,0-.01-.01-.02-.02,0,0-.02-.01-.02-.02,0,0-.01-.01-.02-.02,0,0-.02-.01-.02-.02,0,0-.02-.01-.02-.02,0,0-.01-.01-.02-.02,0,0-.02-.01-.02-.02,0,0-.02-.01-.02-.02,0,0-.01-.01-.02-.02,0,0-.02-.01-.02-.02,0,0-.01-.01-.02-.02,0,0-.02-.01-.02-.02,0,0-.02-.01-.02-.02,0,0-.01-.01-.02-.02,0,0-.02-.01-.02-.02,0,0-.01-.01-.02-.02,0,0-.02-.01-.02-.02,0,0-.02-.01-.02-.02,0,0-.02-.01-.02-.02,0,0-.02-.01-.02-.02,0,0-.02-.01-.02-.02,0,0-.01-.01-.02-.02,0,0-.02-.01-.02-.02,0,0-.01-.01-.02-.02,0,0-.02-.01-.02-.02,0,0-.02-.01-.02-.02,0,0-.01-.01-.02-.02,0,0-.02-.01-.02-.02,0,0-.02-.01-.02-.02s-.01-.01-.02-.02c0,0-.02-.01-.02-.02,0,0-.01-.01-.02-.02,0,0-.02-.01-.02-.02,0,0-.02-.01-.02-.02,0,0-.01-.01-.02-.02,0,0-.02-.01-.02-.02,0,0-.01-.01-.02-.02,0,0-.02-.01-.02-.02,0,0-.02-.01-.02-.02,0,0-.02-.01-.02-.02,0,0-.02-.01-.02-.02,0,0-.02-.01-.02-.02,0,0-.01-.01-.02-.02,0,0-.02-.01-.02-.02,0,0-.01-.01-.02-.02,0,0-.02-.01-.02-.02,0,0-.02-.01-.02-.02,0,0-.01-.01-.02-.02,0,0-.02-.01-.02-.02,0,0-.02-.01-.02-.02,0,0-.02-.01-.02-.02,0,0-.02-.01-.02-.02,0,0-.02-.01-.02-.02,0,0-.02-.01-.02-.02-1.05-.71-2.32-1.13-3.67-1.13H19.69c-3.61,0-6.56,2.95-6.56,6.56V85.31c0,2.26,1.16,4.26,2.91,5.44,0,0,.01,.01,.02,.02,0,0,.02,.01,.02,.02,0,0,.02,.01,.02,.02s.02,.01,.02,.02c0,0,.02,.01,.02,.02,0,0,.02,.01,.02,.02,0,0,.02,.01,.02,.02,0,0,.02,.01,.02,.02,0,0,.01,.01,.02,.02,0,0,.02,.01,.02,.02,0,0,.01,.01,.02,.02,0,0,.02,.01,.02,.02,0,0,.02,.01,.02,.02,0,0,.01,.01,.02,.02,0,0,.02,.01,.02,.02,0,0,.02,.01,.02,.02,0,0,.01,.01,.02,.02,0,0,.02,.01,.02,.02,0,0,.01,.01,.02,.02,0,0,.02,.01,.02,.02,0,0,.02,.01,.02,.02,0,0,.01,.01,.02,.02,0,0,.02,.01,.02,.02,0,0,.01,.01,.02,.02,0,0,.02,.01,.02,.02,0,0,.02,.01,.02,.02s.02,.01,.02,.02c0,0,.02,.01,.02,.02,0,0,.02,.01,.02,.02,0,0,.01,.01,.02,.02,0,0,.02,.01,.02,.02,0,0,.01,.01,.02,.02,0,0,.02,.01,.02,.02,0,0,.02,.01,.02,.02,0,0,.01,.01,.02,.02,0,0,.02,.01,.02,.02,0,0,.02,.01,.02,.02,0,0,.01,.01,.02,.02,0,0,.02,.01,.02,.02,0,0,.01,.01,.02,.02,0,0,.02,.01,.02,.02,0,0,.02,.01,.02,.02,0,0,.01,.01,.02,.02,0,0,.02,.01,.02,.02,0,0,.01,.01,.02,.02,0,0,.02,.01,.02,.02,0,0,.02,.01,.02,.02,0,0,.01,.01,.02,.02,0,0,.02,.01,.02,.02,0,0,.02,.01,.02,.02,0,0,.01,.01,.02,.02,0,0,.02,.01,.02,.02,0,0,.01,.01,.02,.02,0,0,.02,.01,.02,.02,0,0,.02,.01,.02,.02,0,0,.01,.01,.02,.02,0,0,.02,.01,.02,.02,0,0,.02,.01,.02,.02s.02,.01,.02,.02c0,0,.02,.01,.02,.02,1.05,.71,2.32,1.13,3.67,1.13h22.97c3.61,0,6.56-2.95,6.56-6.56V20.63c0-2.26-1.16-4.26-2.91-5.44Zm-5.04,70.13H21.08V20.63h21.58V85.31Z"/>
        <path class="cls-1" d="M91.88,45.94V19.69c0-3.61-2.96-6.56-6.56-6.56h-22.97c-3.61,0-6.56,2.96-6.56,6.56v26.25l29.53,16.99v22.39h-22.97v-22.48l-6.56-3.77v26.25c0,3.61,2.95,6.56,6.56,6.56h22.97c3.61,0,6.56-2.95,6.56-6.56v-26.25l-29.53-16.99V19.69h22.97v22.47l6.56,3.78Z"/>
        <path class="cls-6" d="M42.66,13.13H19.69c-3.61,0-6.56,2.95-6.56,6.56V85.31c0,3.61,2.95,6.56,6.56,6.56h22.97c3.61,0,6.56-2.95,6.56-6.56V19.69c0-3.61-2.95-6.56-6.56-6.56Zm0,72.19H19.69V19.69h22.97V85.31Z"/>
        <path class="cls-5" d="M98.44,45.96v-.02l6.56-3.78V0H5.26C2.61,.52,.52,2.61,0,5.26V105H99.09c3.31-.4,5.87-3.22,5.87-6.64,0-.07,.02-.12,.04-.17v-31.58l-6.56-3.78v-.09h0s0,22.57,0,22.57c0,7.22-5.91,13.12-13.12,13.12H19.69c-7.22,0-13.13-5.91-13.13-13.12V19.69c0-7.22,5.91-13.12,13.13-13.12H85.31c7.22,0,13.12,5.91,13.12,13.12v26.27h0ZM13.13,101.72H3.28v-9.84l9.84,9.84Z"/>
        <g class="cls-11">
          <path class="cls-15" d="M-15.47,37.49s102.79,5.95,144.25,71.8c41.46,65.85-41.89,61.49-41.89,61.49l-107.11-30.54L-15.47,37.49Z"/>
        </g>
        <path class="cls-17" d="M44.31,111.53h-12.62s-5.05,.53-5.67,5.14v9.74s.62,4.78,5.14,5.31h13.68c4.52-.53,5.14-5.31,5.14-5.31v-9.74c-.62-4.61-5.67-5.14-5.67-5.14Zm1.24,14.05c0,1.92-2.13,1.8-2.13,1.8h-10.85s-2.13,.11-2.13-1.8v-7.76s.18-1.51,1.77-1.68h11.56c1.59,.18,1.77,1.68,1.77,1.68v7.76Z"/>
        <g>
          <path class="cls-16" d="M0,115.87v-4.33H14.42s4.75,.5,5.33,4.83v2.08s-.58,4.5-4.83,5H0v-2.75l4.25-1.33H13.59s2,.11,2-1.7v-.22s-.17-1.42-1.67-1.58H0Z"/>
          <path class="cls-12" d="M0,123.67v-4.61H15.32s5.05,.53,5.67,5.14v2.21s-.62,4.78-5.14,5.31H0v-12.66l4.52-2.04v10.36H14.43s2.13,.11,2.13-1.8v-.23s-.18-1.51-1.77-1.68H0Z"/>
        </g>
        <path class="cls-9" d="M60.52,123.61l-.5-4.55h10.32s5.05,.53,5.67,5.14v2.21s-.62,4.78-5.14,5.31h-15.85v-4.34h14.43s2.13,.11,2.13-1.8v-.23s-.18-1.51-1.77-1.68l-9.29-.05Z"/>
        <path class="cls-18" d="M100.57,124.34v1.24c0,1.92-2.13,1.8-2.13,1.8h-10.85s-2.13,.11-2.13-1.8v-7.76s.18-1.51,1.77-1.68h11.56c1.59,.18,1.77,1.68,1.77,1.68v1.15h4.43v-2.3c-.62-4.61-5.67-5.14-5.67-5.14h-12.62s-5.05,.53-5.67,5.14v9.74s.62,4.78,5.14,5.31h13.68c4.52-.53,5.14-5.31,5.14-5.31v-2.07h-4.43Z"/>
        <path class="cls-19" d="M67.62,119.06h-7.28c-.97-.42-1.1-1.45-1.1-1.45v-.22c0-1.83,2.03-1.72,2.03-1.72h9.46c4.05-.72,4.31-4.14,4.31-4.14h-15.12c-4.31,.51-4.9,5.07-4.9,5.07v2.11c.59,4.39,5.41,4.9,5.41,4.9h.09l9.29,.05c1.59,.18,1.77,1.68,1.77,1.68v.23h0s0,0,0,0c.53-4.44-2.78-6.08-3.96-6.52Z"/>
      </g>
      <g>
        <g>
          <path class="cls-10" d="M166.18,15.04l11.37,1.13c-.15,1.05-.68,1.88-2.79,2.18v62.21c0,.83-3.69,2.64-6.93,2.64h-1.66v-22.22c-3.69,3.16-8.59,7-14.84,11.45-.23,.98-.98,1.88-1.88,2.11l-5.05-10.85c3.77-.83,12.58-3.31,21.77-6.1v-20.26h-18.6l-.68-2.18h19.28V15.04Zm46.47,56.41c2.49,1.13,3.16,2.18,3.16,3.77,0,3.92-3.54,5.5-15.44,5.5h-6.85c-7.46,0-9.72-1.81-9.72-8.36V15.12l11.37,1.21c-.08,.98-.75,1.81-2.64,2.11v25.76c5.12-5.88,9.79-12.8,12.5-17.55l10.77,6.93c-.6,.83-1.81,1.05-3.31,.45-4.37,4.07-11.67,8.96-19.96,12.88v22.9c0,1.73,.6,2.41,3.09,2.41h5.57c2.11,0,3.92-.08,4.9-.15,.83-.08,1.43-.3,2.03-1.05,.75-1.36,2.11-5.87,3.46-10.54h.75l.3,11Z"/>
          <path class="cls-10" d="M247.22,64.38c-.38,.68-1.05,1.13-2.79,.83-5.42,5.5-14.46,11.67-24.18,15.06l-.68-.75c7.16-5.65,14.16-14.76,17.32-21.16l10.32,6.03Zm33.82-46.7s5.95,4.52,9.42,7.61c-.23,.83-1.05,1.21-2.18,1.21h-67.11l-.6-2.18h33.59l-.3-.15c-1.28-4.22-5.05-8.74-8.36-11.37l.53-.45c17.1-.6,18.15,9.19,13.63,11.98h16.19l5.2-6.63Zm-20.86,35.78v19.43c0,5.87-1.51,9.79-11.98,10.54-.23-2.79-.6-4.82-1.66-6.1-1.13-1.28-2.86-2.33-6.93-2.94v-.98s7.98,.53,9.64,.53c1.28,0,1.66-.45,1.66-1.36v-19.13h-8.66v1.66c0,.83-4.14,2.86-7.98,2.86h-1.28V31.08l9.79,3.77h24.93l4.29-4.59,8.89,6.7c-.45,.6-1.51,1.28-3.09,1.58v16.34c-.08,.53-4.59,2.41-7.68,2.41h-1.66v-3.84h-8.28Zm8.28-2.18v-14.24h-26.21v14.24h26.21Zm-2.94,8.81c28.02,5.12,23.12,23.42,13.71,18.38-2.79-6.1-9.26-13.26-14.39-17.85l.68-.53Z"/>
          <path class="cls-10" d="M358.16,38.39s5.27,4.82,8.13,7.91c-.23,.83-.98,1.21-2.03,1.21h-17.62v32.84c0,.6-2.86,2.64-7.68,2.64h-1.73V47.5h-13.18c-.45,14.23-4.44,28.02-28.09,35.78l-.6-.68c15.59-9.49,18.98-21.24,19.36-35.1h-18.53l-.6-2.18h19.21V21.97h-15.44l-.68-2.18h51.52l4.52-5.88s5.12,4.07,8.21,6.85c-.23,.83-1.05,1.21-2.11,1.21h-14.16v23.35h7l4.52-6.93Zm-20.94,6.93V21.97h-13.11v23.35h13.11Z"/>
          <path class="cls-10" d="M370.67,31.01c19.36,1.43,12.58,15.59,5.05,10.47-.68-3.54-3.31-7.53-5.65-9.94l.6-.53Zm21.24-5.72c-2.49,9.41-6.78,26.89-7.61,31.11-.6,2.64-.98,5.35-.9,7.16,.15,4.14,3.16,6.93,2.86,13.63-.15,3.77-2.49,6.33-6.03,6.33-1.73,0-3.46-1.05-3.99-3.99,1.36-7.76,1.05-14.99-.68-16.12-1.05-.75-2.26-1.05-3.84-1.21v-1.51h3.31c1.05,0,1.36,0,2.11-1.58q1.43-2.86,13.63-34.19l1.13,.38Zm-16.49-11.75c20.41,1.96,13.41,16.87,5.57,11.52-.83-3.99-3.69-8.29-6.18-11.07l.6-.45Zm57.84-.23s5.27,4.14,8.36,7c-.15,.83-.98,1.21-2.03,1.21h-20.49l7.76,1.81c-.3,.98-1.21,1.66-2.79,1.73-1.81,1.96-3.99,4.07-6.18,5.65h10.47l3.69-3.92,7.76,5.88c-.38,.53-1.36,1.05-2.71,1.36v21.09c-.08,.53-4.07,2.03-6.7,2.03h-1.36v-2.79h-3.92v18.6c0,5.72-1.36,9.72-10.24,10.47-.08-2.71-.45-4.75-1.36-6.03-.83-1.28-2.33-2.18-5.57-2.79v-.98s6.18,.38,7.53,.38c1.05,0,1.36-.45,1.36-1.28v-18.38h-4.29v1.13c0,.68-3.31,2.49-6.63,2.49h-1.13V27.39l8.13,3.31h2.03c.38-2.49,.68-5.88,.83-9.19h-14.84v15.89c0,13.78-.68,33.14-14.54,45.79l-.9-.53c6.63-13.56,7.16-30.5,7.16-45.27V15.87l9.56,3.54h26.44l4.59-6.1Zm-17.7,49.63c-.3,.83-.98,1.21-2.71,1.05-3.39,5.27-8.96,11.75-15.82,15.74l-.75-.83c4.67-5.65,8.36-14.46,9.87-20.34l9.42,4.37Zm-3.01-30.05v8.81h16.5v-8.81h-16.5Zm16.5,19.28v-8.28h-16.5v8.28h16.5Zm-1.96,7.76c20.49,7.83,14.08,22.52,6.85,16.8-.9-5.42-4.59-11.98-7.68-16.34l.83-.45Z"/>
          <path class="cls-10" d="M464.21,23.93V13.16l11.3,.98c-.08,.98-.68,1.73-2.64,2.03v7.76h16.57V13.16l11.52,.98c-.15,.98-.75,1.73-2.71,2.03v7.76h5.65l4.75-6.4s5.42,4.37,8.44,7.31c-.23,.83-1.05,1.21-2.11,1.21h-16.72v7.68c0,.83-3.39,2.11-7.38,2.11h-1.43v-9.79h-16.57v8.13c0,.83-3.62,2.11-7.31,2.11h-1.36v-10.24h-17.77l-.53-2.11h18.3Zm-6.85,22.22c9.11,32.54-17.1,28.92-9.57,17.62,3.99-3.39,7.61-9.64,8.66-17.7l.9,.08Zm18.53-3.77c-.15,.98-.83,1.73-2.49,1.96v26.14c0,1.51,.6,1.88,3.54,1.88h8.81c3.24,0,6.03,0,7.31-.08,1.21-.08,1.73-.38,2.33-1.21,.9-1.43,2.26-5.27,3.84-10.24h.75l.3,10.62c2.64,.98,3.31,2.03,3.31,3.69,0,3.99-3.69,5.72-18.6,5.72h-9.49c-8.59,0-10.92-1.51-10.92-8.06v-31.41l11.3,.98Zm9.34,13.86c-1.05-6.48-4.82-13.86-8.13-19.28l.75-.38c23.35,9.11,15.89,26.66,7.38,19.66Zm22.29,12.13c-.3-7.61-3.92-16.34-7.76-22.67l.75-.45c24.4,11.6,15.97,31.41,7,23.12Z"/>
          <path class="cls-10" d="M582.83,27.39s5.57,4.52,8.81,7.68c-.15,.83-.98,1.21-2.11,1.21h-47.15v5.5c0,2.64-.15,5.35-.38,7.98h20.19l4.22-4.59,8.89,6.7c-.53,.6-1.58,1.28-3.24,1.66v27.64c-.08,.53-4.59,2.11-7.53,2.11h-1.51v-31.33h-21.31c-1.66,12.73-6.78,24.4-20.03,31.41l-.68-.68c10.62-10.77,12.65-25.68,12.65-40.9V14.67l11.45,1.13c-.15,1.05-.75,1.81-2.71,2.11v16.19h16.04V12.71l11.97,.98c-.15,1.05-.68,1.81-2.86,2.18v18.23h10.32l4.97-6.7Z"/>
          <path class="cls-10" d="M661.69,38.92s4.59,4.29,7,7.16c-.15,.83-.9,1.21-1.96,1.21h-9.19v33.59c0,.6-2.64,2.41-7,2.41h-1.58V47.28h-7.46c-.23,13.86-2.71,27.72-21.77,36.3l-.68-.68c11.98-9.72,14.01-21.92,14.16-35.62h-7.23l-.6-2.18h7.83V21.9h-5.95l-.08-.15h-12.2c-1.05,6.78-2.64,13.1-4.97,18.9l1.28,.53h4.75l3.77-3.92,7.46,5.8c-.38,.45-1.28,1.05-2.49,1.28v28.55c-.08,.53-3.99,2.11-6.63,2.11h-1.36v-5.42h-6.48v7c0,.6-2.41,2.41-6.4,2.41h-1.28v-24.7c-1.81,2.56-3.77,4.97-5.95,7.23l-.98-.75c5.8-10.62,8.74-25.08,10.24-39.01h-8.66l-.6-2.18h19.88l4.59-5.8s4.14,3.24,7.23,5.95h25.68l4.52-6.03s5.05,4.14,8.13,7c-.23,.83-1.05,1.21-2.11,1.21h-7.08v23.2h.3l3.84-6.18Zm-51.37,4.44v24.1h6.48v-24.1h-6.48Zm38.64,1.73V21.9h-7.46v23.2h7.46Z"/>
          <path class="cls-10" d="M682.63,25.36c.83,5.5-.9,9.41-3.46,11-2.49,1.58-5.8,.9-6.85-1.81-.83-2.64,.75-4.75,3.09-5.95,2.33-1.66,4.59-5.8,3.84-10.24l1.05-.08c.83,1.73,1.43,3.39,1.88,4.97h23.8c-.83-.23-1.58-.68-2.41-1.28,0-3.46-1.73-7.16-3.62-9.26l.53-.38c15.29,.6,13.86,9.34,8.81,10.92h20.79l4.44-4.59,7.98,7.61c-.53,.6-1.36,.75-2.86,.83-2.18,2.33-5.65,5.42-8.66,7.53,8.44,6.1,5.35,14.08-1.13,11.67-3.99-6.1-12.73-13.18-19.73-17.02l.53-.75c8.51,.68,14.54,2.64,18.6,4.97,.53-2.49,1.05-5.65,1.43-8.13h-48.05Zm57.24,47c2.26,.98,2.71,1.96,2.71,3.54,0,3.54-3.31,4.9-13.03,4.9h-5.65c-7,0-8.21-1.81-8.21-7.31v-20.26h-10.47c-1.81,12.35-7.61,22.9-32.39,30.05l-.68-.98c17.78-8.21,22.52-17.85,23.88-29.07h-15.67l-.68-2.18h16.57c.3-3.62,.3-7.46,.38-11.37l11.98,.98c-.15,1.13-.83,1.81-2.56,2.03-.15,2.86-.3,5.65-.6,8.36h9.41l4.37-4.9,8.13,6.55c-.53,.6-1.21,.98-2.64,1.28v17.78c0,.98,.3,1.21,1.88,1.21h4.07c1.28,0,2.71,0,3.31-.08,.75,0,1.13-.15,1.58-.9,.75-1.13,1.96-4.52,3.31-8.51h.75l.23,8.89Zm-65.6-25.46c6.33-4.22,17.47-14.91,21.54-19.81l9.72,6.93c-.53,.9-1.81,1.43-4.14,1.13-6.25,3.77-17.32,9.26-26.66,12.5l-.45-.75Z"/>
          <path class="cls-10" d="M778.88,27.02c2.33,13.63-13.63,9.34-6.7,.83,1.88-1.05,3.24-3.31,3.69-6.4-.6,.68-1.58,.9-3.31,.9-2.49,4.75-6.93,12.8-10.47,17.55,7.46,5.12,10.62,12.28,10.69,18.53,0,7.46-2.64,11.52-10.69,11.75,0-2.26-.23-5.2-.83-6.33-.53-.75-1.58-1.28-3.09-1.73v18.75c0,.53-2.49,2.56-6.55,2.56h-1.43V14.74l8.96,3.46h4.44l4.29-4.14,7.98,7.38,.08-.75h.98c.68,1.51,1.13,2.94,1.51,4.22h14.08c-.75-.23-1.58-.75-2.41-1.43,.08-3.69-1.51-7.83-3.39-10.39l.6-.45c14.24,2.33,12.8,10.77,8.13,12.28h12.28l3.99-3.99,7.16,6.78c-.6,.53-1.36,.68-2.86,.75-2.11,1.73-5.8,4.07-8.29,5.57,1.43,1.28,3.09,2.71,4.37,3.92-.15,.83-.98,1.21-2.03,1.21h-33.82l-.6-2.11h24.25l4.37-5.8,2.33,1.88c.53-1.66,1.05-4.14,1.51-6.1h-29.22Zm-16.72,34.12c.68,0,1.13-.08,1.58-.38,.98-.68,1.51-2.03,1.51-4.44,0-5.42-1.36-11.15-4.97-16.19,1.28-4.97,3.01-13.86,3.92-19.81h-6.03V61.14h3.99Zm53.93,11.9c1.96,.98,2.41,2.03,2.41,3.62,0,3.24-2.71,5.05-11.22,5.05h-4.59c-6.25,0-7.16-1.73-7.16-7.16v-23.72h-5.8c-.98,12.5-4.14,24.18-24.4,32.08l-.75-.98c14.61-9.42,15.67-20.19,15.97-31.11h-7.46l-.6-2.18h32.76l4.44-6.1s5.2,4.14,8.28,7.08c-.23,.83-1.05,1.21-2.11,1.21h-12.05v21.54c0,.9,.15,1.21,1.43,1.21h5.5c.6,0,.98-.15,1.43-.83,.6-1.05,1.73-4.59,2.86-8.28h.83l.23,8.59Z"/>
        </g>
        <g>
          <path class="cls-10" d="M147.61,94.51h7.55c5,0,8.6,1.59,8.6,5.99,0,2.32-1.29,4.54-3.48,5.26v.17c2.78,.6,4.8,2.48,4.8,5.79,0,4.83-3.94,7.15-9.33,7.15h-8.14v-24.36Zm7.12,10.16c3.71,0,5.26-1.39,5.26-3.67,0-2.55-1.72-3.51-5.16-3.51h-3.38v7.18h3.28Zm.6,11.19c3.81,0,5.99-1.36,5.99-4.34,0-2.75-2.12-3.94-5.99-3.94h-3.87v8.27h3.87Z"/>
          <path class="cls-10" d="M169.68,94.51h14.4v3.21h-10.56v6.79h8.94v3.24h-8.94v7.88h10.92v3.24h-14.76v-24.36Z"/>
          <path class="cls-10" d="M189.54,94.51h3.84v24.36h-3.84v-24.36Z"/>
          <path class="cls-10" d="M197.55,115.26l2.68-1.95c1.03,1.89,2.35,2.65,3.94,2.65,2.45,0,3.67-1.32,3.67-4.9v-16.55h3.84v16.91c0,4.37-2.12,7.88-7.08,7.88-3.28,0-5.53-1.36-7.05-4.04Z"/>
          <path class="cls-10" d="M217.97,94.51h3.84v24.36h-3.84v-24.36Z"/>
          <path class="cls-10" d="M228.2,94.51h3.94l8.08,14.3,2.55,5.16h.17c-.2-2.52-.5-5.46-.5-8.11v-11.35h3.64v24.36h-3.94l-8.08-14.36-2.55-5.1h-.17c.2,2.52,.5,5.33,.5,7.98v11.48h-3.64v-24.36Z"/>
          <path class="cls-10" d="M251.17,106.75c0-7.94,4.9-12.71,11.35-12.71,3.44,0,5.76,1.52,7.25,3.08l-2.09,2.45c-1.19-1.22-2.68-2.18-5.03-2.18-4.53,0-7.55,3.51-7.55,9.23s2.68,9.33,7.71,9.33c1.49,0,2.98-.43,3.84-1.19v-5.73h-4.83v-3.14h8.31v10.56c-1.62,1.62-4.37,2.85-7.71,2.85-6.52,0-11.25-4.57-11.25-12.54Z"/>
          <path class="cls-10" d="M283.14,94.51h3.84v24.36h-3.84v-24.36Z"/>
          <path class="cls-10" d="M293.37,94.51h3.94l8.08,14.3,2.55,5.16h.17c-.2-2.52-.5-5.46-.5-8.11v-11.35h3.64v24.36h-3.94l-8.08-14.36-2.55-5.1h-.17c.2,2.52,.5,5.33,.5,7.98v11.48h-3.64v-24.36Z"/>
          <path class="cls-10" d="M315.94,115.72l2.25-2.65c1.75,1.75,4.14,2.88,6.49,2.88,2.95,0,4.6-1.39,4.6-3.44,0-2.22-1.65-2.91-3.91-3.91l-3.38-1.46c-2.35-.99-4.96-2.85-4.96-6.39,0-3.84,3.38-6.72,8.01-6.72,2.85,0,5.53,1.19,7.38,3.08l-2.02,2.45c-1.52-1.36-3.21-2.18-5.36-2.18-2.48,0-4.1,1.19-4.1,3.14,0,2.09,1.95,2.88,3.94,3.67l3.34,1.42c2.88,1.22,4.96,3.01,4.96,6.59,0,3.91-3.24,7.08-8.57,7.08-3.34,0-6.45-1.32-8.67-3.57Z"/>
          <path class="cls-10" d="M342.02,97.72h-7.15v-3.21h18.17v3.21h-7.18v21.15h-3.84v-21.15Z"/>
          <path class="cls-10" d="M357.25,94.51h3.84v24.36h-3.84v-24.36Z"/>
          <path class="cls-10" d="M372.44,97.72h-7.15v-3.21h18.17v3.21h-7.18v21.15h-3.84v-21.15Z"/>
          <path class="cls-10" d="M387.53,108.41v-13.9h3.84v14.17c0,5.49,2.18,7.28,5.23,7.28s5.33-1.79,5.33-7.28v-14.17h3.71v13.9c0,7.94-3.64,10.89-9.04,10.89s-9.07-2.95-9.07-10.89Z"/>
          <path class="cls-10" d="M416.89,97.72h-7.15v-3.21h18.17v3.21h-7.18v21.15h-3.84v-21.15Z"/>
          <path class="cls-10" d="M432.11,94.51h14.4v3.21h-10.56v6.79h8.94v3.24h-8.94v7.88h10.92v3.24h-14.76v-24.36Z"/>
          <path class="cls-10" d="M458.09,106.59c0-7.84,4.34-12.54,10.59-12.54s10.62,4.7,10.62,12.54-4.37,12.71-10.62,12.71-10.59-4.87-10.59-12.71Zm17.28,0c0-5.72-2.65-9.2-6.69-9.2s-6.65,3.48-6.65,9.2,2.61,9.37,6.65,9.37,6.69-3.64,6.69-9.37Z"/>
          <path class="cls-10" d="M484.37,94.51h14.43v3.21h-10.59v7.45h9v3.21h-9v10.49h-3.84v-24.36Z"/>
          <path class="cls-10" d="M509.23,106.59c0-7.84,4.34-12.54,10.59-12.54s10.62,4.7,10.62,12.54-4.37,12.71-10.62,12.71-10.59-4.87-10.59-12.71Zm17.28,0c0-5.72-2.65-9.2-6.69-9.2s-6.65,3.48-6.65,9.2,2.61,9.37,6.65,9.37,6.69-3.64,6.69-9.37Z"/>
          <path class="cls-10" d="M535.51,94.51h7.38c5.43,0,9.3,1.85,9.3,7.35s-3.87,7.78-9.17,7.78h-3.67v9.23h-3.84v-24.36Zm7.15,12.05c3.91,0,5.76-1.49,5.76-4.7s-2.02-4.27-5.89-4.27h-3.18v8.97h3.31Z"/>
          <path class="cls-10" d="M556.92,94.51h14.4v3.21h-10.56v6.79h8.94v3.24h-8.94v7.88h10.92v3.24h-14.76v-24.36Z"/>
          <path class="cls-10" d="M576.78,94.51h3.94l8.08,14.3,2.55,5.16h.17c-.2-2.52-.5-5.46-.5-8.11v-11.35h3.64v24.36h-3.94l-8.08-14.36-2.55-5.1h-.17c.2,2.52,.5,5.33,.5,7.98v11.48h-3.64v-24.36Z"/>
          <path class="cls-10" d="M606.8,115.72l2.25-2.65c1.75,1.75,4.14,2.88,6.49,2.88,2.95,0,4.6-1.39,4.6-3.44,0-2.22-1.65-2.91-3.91-3.91l-3.38-1.46c-2.35-.99-4.96-2.85-4.96-6.39,0-3.84,3.38-6.72,8.01-6.72,2.85,0,5.53,1.19,7.38,3.08l-2.02,2.45c-1.52-1.36-3.21-2.18-5.36-2.18-2.48,0-4.1,1.19-4.1,3.14,0,2.09,1.95,2.88,3.94,3.67l3.34,1.42c2.88,1.22,4.96,3.01,4.96,6.59,0,3.91-3.24,7.08-8.57,7.08-3.34,0-6.45-1.32-8.67-3.57Z"/>
          <path class="cls-10" d="M627.32,106.59c0-7.84,4.34-12.54,10.59-12.54s10.62,4.7,10.62,12.54-4.37,12.71-10.62,12.71-10.59-4.87-10.59-12.71Zm17.28,0c0-5.72-2.65-9.2-6.69-9.2s-6.65,3.48-6.65,9.2,2.61,9.37,6.65,9.37,6.69-3.64,6.69-9.37Z"/>
          <path class="cls-10" d="M653.47,108.41v-13.9h3.84v14.17c0,5.49,2.18,7.28,5.23,7.28s5.33-1.79,5.33-7.28v-14.17h3.71v13.9c0,7.94-3.64,10.89-9.04,10.89s-9.07-2.95-9.07-10.89Z"/>
          <path class="cls-10" d="M691.17,118.87l-5.53-9.83h-3.94v9.83h-3.84v-24.36h7.98c5.03,0,8.8,1.79,8.8,7.05,0,3.77-2.02,6.02-5.1,6.98l5.96,10.33h-4.34Zm-9.47-12.91h3.67c3.54,0,5.46-1.46,5.46-4.4s-1.92-3.97-5.46-3.97h-3.67v8.37Z"/>
          <path class="cls-10" d="M698.22,106.75c0-7.94,4.83-12.71,10.99-12.71,3.04,0,5.43,1.46,6.92,3.08l-2.08,2.45c-1.26-1.29-2.78-2.18-4.77-2.18-4.2,0-7.12,3.51-7.12,9.23s2.71,9.33,7.02,9.33c2.22,0,3.94-.99,5.39-2.58l2.05,2.42c-1.95,2.25-4.44,3.51-7.58,3.51-6.12,0-10.82-4.57-10.82-12.54Z"/>
          <path class="cls-10" d="M720.92,94.51h14.4v3.21h-10.56v6.79h8.94v3.24h-8.94v7.88h10.92v3.24h-14.76v-24.36Z"/>
          <path class="cls-10" d="M746.9,106.75c0-7.94,4.83-12.71,10.99-12.71,3.04,0,5.43,1.46,6.92,3.08l-2.08,2.45c-1.26-1.29-2.78-2.18-4.77-2.18-4.2,0-7.12,3.51-7.12,9.23s2.71,9.33,7.02,9.33c2.22,0,3.94-.99,5.39-2.58l2.05,2.42c-1.95,2.25-4.44,3.51-7.58,3.51-6.12,0-10.82-4.57-10.82-12.54Z"/>
          <path class="cls-10" d="M769.61,94.51h3.84v9.93h10.43v-9.93h3.84v24.36h-3.84v-11.09h-10.43v11.09h-3.84v-24.36Z"/>
          <path class="cls-10" d="M794.1,94.51h3.84v24.36h-3.84v-24.36Z"/>
          <path class="cls-10" d="M804.33,94.51h7.38c5.43,0,9.3,1.85,9.3,7.35s-3.87,7.78-9.17,7.78h-3.67v9.23h-3.84v-24.36Zm7.15,12.05c3.91,0,5.76-1.49,5.76-4.7s-2.02-4.27-5.89-4.27h-3.18v8.97h3.31Z"/>
        </g>
      </g>
    </g>
  </g>
</svg>