<svg xmlns="http://www.w3.org/2000/svg" xmlns:xlink="http://www.w3.org/1999/xlink" version="1.1" width="1151px" height="530px" viewBox="-0.5 -0.5 1151 530"><defs><linearGradient x1="0%" y1="0%" x2="0%" y2="100%" id="mx-gradient-d5e8d4-1-97d077-1-s-0"><stop offset="0%" style="stop-color: rgb(213, 232, 212); stop-opacity: 1;"/><stop offset="100%" style="stop-color: rgb(151, 208, 119); stop-opacity: 1;"/></linearGradient></defs><g><g data-cell-id="U9F5NmU2L__z_BYRfejg-0"><g data-cell-id="U9F5NmU2L__z_BYRfejg-1"><g data-cell-id="U9F5NmU2L__z_BYRfejg-96"><g><path d="M 685 270 L 652 270 L 618.37 269.72" fill="none" stroke="rgb(0, 0, 0)" stroke-miterlimit="10" pointer-events="stroke"/><path d="M 613.12 269.68 L 620.15 266.24 L 618.37 269.72 L 620.09 273.24 Z" fill="rgb(0, 0, 0)" stroke="rgb(0, 0, 0)" stroke-miterlimit="10" pointer-events="all"/></g></g><g data-cell-id="U9F5NmU2L__z_BYRfejg-97"><g><rect x="685" y="110" width="80" height="360" fill="#b1ddf0" stroke="#10739e" pointer-events="all"/></g><g><g fill="rgb(0, 0, 0)" font-family="&quot;Helvetica&quot;" text-anchor="middle" font-size="21px"><text x="724.5" y="299">cmn</text></g></g></g><g data-cell-id="U9F5NmU2L__z_BYRfejg-98"><g><rect x="462" y="370" width="120" height="30" fill="url(#mx-gradient-d5e8d4-1-97d077-1-s-0)" stroke="#82b366" pointer-events="all"/></g><g><g fill="rgb(0, 0, 0)" font-family="&quot;Helvetica&quot;" text-anchor="middle" font-size="21px"><text x="521.5" y="394">CLINT</text></g></g></g><g data-cell-id="U9F5NmU2L__z_BYRfejg-99"><g><rect x="462" y="430" width="120" height="30" fill="url(#mx-gradient-d5e8d4-1-97d077-1-s-0)" stroke="#82b366" pointer-events="all"/></g><g><g fill="rgb(0, 0, 0)" font-family="&quot;Helvetica&quot;" text-anchor="middle" font-size="21px"><text x="521.5" y="454">IMSIC</text></g></g></g><g data-cell-id="U9F5NmU2L__z_BYRfejg-100"><g><path d="M 1142 157 L 1020.8 157.5 L 1020.8 156.5 L 905.87 156.5" fill="none" stroke="rgb(0, 0, 0)" stroke-miterlimit="10" pointer-events="stroke"/><path d="M 900.62 156.5 L 907.62 153 L 905.87 156.5 L 907.62 160 Z" fill="rgb(0, 0, 0)" stroke="rgb(0, 0, 0)" stroke-miterlimit="10" pointer-events="all"/></g></g><g data-cell-id="U9F5NmU2L__z_BYRfejg-101"><g><rect x="819.5" y="134" width="80" height="90" fill="#d0cee2" stroke="#56517e" pointer-events="all"/></g><g><g fill="rgb(0, 0, 0)" font-family="&quot;Helvetica&quot;" text-anchor="middle" font-size="21px"><text x="859" y="188">xstop</text></g></g></g><g data-cell-id="U9F5NmU2L__z_BYRfejg-112"><g><rect x="55" y="150" width="60" height="30" fill="none" stroke="none" pointer-events="all"/></g><g><g fill="rgb(0, 0, 0)" font-family="&quot;Helvetica&quot;" text-anchor="middle" font-size="21px"><text x="84.5" y="174">jtag_clk/soc_reset</text></g></g></g><g data-cell-id="U9F5NmU2L__z_BYRfejg-114"><g><path d="M 342 360 L 342 380 L 455.51 381.16" fill="none" stroke="rgb(0, 0, 0)" stroke-miterlimit="10" pointer-events="stroke"/><path d="M 460.76 381.21 L 453.73 384.64 L 455.51 381.16 L 453.8 377.64 Z" fill="rgb(0, 0, 0)" stroke="rgb(0, 0, 0)" stroke-miterlimit="10" pointer-events="all"/></g></g><g data-cell-id="U9F5NmU2L__z_BYRfejg-115"><g><path d="M 342 360 L 342 445 L 455.63 445" fill="none" stroke="rgb(0, 0, 0)" stroke-miterlimit="10" pointer-events="stroke"/><path d="M 460.88 445 L 453.88 448.5 L 455.63 445 L 453.88 441.5 Z" fill="rgb(0, 0, 0)" stroke="rgb(0, 0, 0)" stroke-miterlimit="10" pointer-events="all"/></g></g><g data-cell-id="U9F5NmU2L__z_BYRfejg-116"><g><rect x="2" y="340" width="120" height="40" fill="none" stroke="none" pointer-events="all"/></g><g><g fill="rgb(0, 0, 0)" font-family="&quot;Helvetica&quot;" font-size="21px"><text x="3.5" y="366.5">soc_clk/soc_reset</text></g></g></g><g data-cell-id="U9F5NmU2L__z_BYRfejg-117"><g><path d="M 182 20 L 725 20 L 725 103.63" fill="none" stroke="rgb(0, 0, 0)" stroke-miterlimit="10" pointer-events="stroke"/><path d="M 725 108.88 L 721.5 101.88 L 725 103.63 L 728.5 101.88 Z" fill="rgb(0, 0, 0)" stroke="rgb(0, 0, 0)" stroke-miterlimit="10" pointer-events="all"/></g></g><g data-cell-id="U9F5NmU2L__z_BYRfejg-118"><g><rect x="55" y="0" width="60" height="30" fill="none" stroke="none" pointer-events="all"/></g><g><g fill="rgb(0, 0, 0)" font-family="&quot;Helvetica&quot;" text-anchor="middle" font-size="21px"><text x="84.5" y="24">noc_clk/noc_reset</text></g></g></g><g data-cell-id="U9F5NmU2L__z_BYRfejg-119"><g><rect x="2" y="500" width="175" height="30" fill="none" stroke="none" pointer-events="all"/></g><g><g fill="rgb(0, 0, 0)" font-family="&quot;Helvetica&quot;" text-anchor="middle" font-size="21px"><text x="89" y="524">cpu_clk/cpu_reset</text></g></g></g><g data-cell-id="U9F5NmU2L__z_BYRfejg-120"><g><path d="M 182 520 L 942 520 L 942 394 L 942 420 L 900.25 420.1" fill="none" stroke="rgb(0, 0, 0)" stroke-miterlimit="10" pointer-events="stroke"/><path d="M 895 420.12 L 901.99 416.6 L 900.25 420.1 L 902.01 423.6 Z" fill="rgb(0, 0, 0)" stroke="rgb(0, 0, 0)" stroke-miterlimit="10" pointer-events="all"/></g></g><g data-cell-id="U9F5NmU2L__z_BYRfejg-121"><g><path d="M 942 400 L 942 179 L 905.87 179" fill="none" stroke="rgb(0, 0, 0)" stroke-miterlimit="10" pointer-events="stroke"/><path d="M 900.62 179 L 907.62 175.5 L 905.87 179 L 907.62 182.5 Z" fill="rgb(0, 0, 0)" stroke="rgb(0, 0, 0)" stroke-miterlimit="10" pointer-events="all"/></g></g><g data-cell-id="U9F5NmU2L__z_BYRfejg-122"><g><rect x="800" y="145" width="32" height="25" fill="#fad9d5" stroke="#ae4132" pointer-events="all"/></g><g><g fill="rgb(0, 0, 0)" font-family="&quot;Helvetica&quot;" text-anchor="middle" font-size="12px"><text x="815.5" y="162">chi</text></g></g></g><g data-cell-id="U9F5NmU2L__z_BYRfejg-123"><g><path d="M 772.25 157.22 L 793.63 157.44" fill="none" stroke="rgb(0, 0, 0)" stroke-miterlimit="10" pointer-events="stroke"/><path d="M 767 157.17 L 774.03 153.74 L 772.25 157.22 L 773.96 160.74 Z" fill="rgb(0, 0, 0)" stroke="rgb(0, 0, 0)" stroke-miterlimit="10" pointer-events="all"/><path d="M 798.88 157.49 L 791.85 160.92 L 793.63 157.44 L 791.92 153.92 Z" fill="rgb(0, 0, 0)" stroke="rgb(0, 0, 0)" stroke-miterlimit="10" pointer-events="all"/></g></g><g data-cell-id="U9F5NmU2L__z_BYRfejg-124"><g><path d="M 612 225 L 652 225 L 678.63 225" fill="none" stroke="rgb(0, 0, 0)" stroke-miterlimit="10" pointer-events="stroke"/><path d="M 683.88 225 L 676.88 228.5 L 678.63 225 L 676.88 221.5 Z" fill="rgb(0, 0, 0)" stroke="rgb(0, 0, 0)" stroke-miterlimit="10" pointer-events="all"/></g></g><g data-cell-id="U9F5NmU2L__z_BYRfejg-125"><g/><g data-cell-id="U9F5NmU2L__z_BYRfejg-126"><g><rect x="817" y="360" width="80" height="90" fill="#d0cee2" stroke="#56517e" pointer-events="all"/></g><g><g fill="rgb(0, 0, 0)" font-family="&quot;Helvetica&quot;" text-anchor="middle" font-size="21px"><text x="856.5" y="414">xstop</text></g></g></g><g data-cell-id="U9F5NmU2L__z_BYRfejg-127"><g><rect x="800" y="371" width="32" height="25" fill="#fad9d5" stroke="#ae4132" pointer-events="all"/></g><g><g fill="rgb(0, 0, 0)" font-family="&quot;Helvetica&quot;" text-anchor="middle" font-size="12px"><text x="815.5" y="388">chi</text></g></g></g></g><g data-cell-id="U9F5NmU2L__z_BYRfejg-128"><g><path d="M 522 110 L 522 90 L 188.37 90" fill="none" stroke="#dd0e0e" stroke-miterlimit="10" pointer-events="stroke"/><path d="M 183.12 90 L 190.12 86.5 L 188.37 90 L 190.12 93.5 Z" fill="#dd0e0e" stroke="#dd0e0e" stroke-miterlimit="10" pointer-events="all"/></g></g><g data-cell-id="U9F5NmU2L__z_BYRfejg-129"><g><path d="M 222 90 L 222 353.63" fill="none" stroke="#f80d0d" stroke-miterlimit="10" pointer-events="stroke"/><path d="M 222 358.88 L 218.5 351.88 L 222 353.63 L 225.5 351.88 Z" fill="#f80d0d" stroke="#f80d0d" stroke-miterlimit="10" pointer-events="all"/></g></g><g data-cell-id="U9F5NmU2L__z_BYRfejg-130"><g><path d="M 262 90 L 262 513.63" fill="none" stroke="#ea1a1a" stroke-miterlimit="10" pointer-events="stroke"/><path d="M 262 518.88 L 258.5 511.88 L 262 513.63 L 265.5 511.88 Z" fill="#ea1a1a" stroke="#ea1a1a" stroke-miterlimit="10" pointer-events="all"/></g></g><g data-cell-id="U9F5NmU2L__z_BYRfejg-131"><g><path d="M 302 90 L 302 26.37" fill="none" stroke="#c50d0d" stroke-miterlimit="10" pointer-events="stroke"/><path d="M 302 21.12 L 305.5 28.12 L 302 26.37 L 298.5 28.12 Z" fill="#c50d0d" stroke="#c50d0d" stroke-miterlimit="10" pointer-events="all"/></g></g><g data-cell-id="U9F5NmU2L__z_BYRfejg-132"><g><rect x="345" y="80" width="60" height="30" fill="none" stroke="none" pointer-events="all"/></g><g><g fill="#ee1111" font-family="&quot;Helvetica&quot;" text-anchor="middle" font-size="21px"><text x="374.5" y="104">ndmreset</text></g></g></g><g data-cell-id="U9F5NmU2L__z_BYRfejg-133"><g><path d="M 764.87 384.45 L 793.13 385.13" fill="none" stroke="rgb(0, 0, 0)" stroke-miterlimit="10" pointer-events="stroke"/><path d="M 759.62 384.32 L 766.7 380.99 L 764.87 384.45 L 766.53 387.99 Z" fill="rgb(0, 0, 0)" stroke="rgb(0, 0, 0)" stroke-miterlimit="10" pointer-events="all"/><path d="M 798.38 385.26 L 791.3 388.59 L 793.13 385.13 L 791.47 381.59 Z" fill="rgb(0, 0, 0)" stroke="rgb(0, 0, 0)" stroke-miterlimit="10" pointer-events="all"/></g></g><g data-cell-id="U9F5NmU2L__z_BYRfejg-134"><g><path d="M 1142 384 L 1018.25 384.5 L 900.87 384.19" fill="none" stroke="rgb(0, 0, 0)" stroke-miterlimit="10" pointer-events="stroke"/><path d="M 895.62 384.17 L 902.63 380.69 L 900.87 384.19 L 902.61 387.69 Z" fill="rgb(0, 0, 0)" stroke="rgb(0, 0, 0)" stroke-miterlimit="10" pointer-events="all"/></g></g><g data-cell-id="U9F5NmU2L__z_BYRfejg-135"><g><rect x="852" y="0" width="120" height="40" fill="none" stroke="none" pointer-events="all"/></g><g><g fill="rgb(0, 0, 0)" font-family="&quot;Helvetica&quot;" text-anchor="middle" font-size="26px"><text x="911.5" y="31.5">interrupt</text></g></g></g><g data-cell-id="U9F5NmU2L__z_BYRfejg-136"><g><path d="M 862 90 L 857 90 L 568.3 90 L 568.31 102.71" fill="none" stroke="rgb(0, 0, 0)" stroke-width="2" stroke-miterlimit="10" pointer-events="stroke"/><path d="M 568.32 108.71 L 564.31 100.72 L 568.31 102.71 L 572.31 100.71 Z" fill="rgb(0, 0, 0)" stroke="rgb(0, 0, 0)" stroke-width="2" stroke-miterlimit="10" pointer-events="all"/></g></g><g data-cell-id="U9F5NmU2L__z_BYRfejg-137"><g><rect x="802" y="55" width="150" height="40" fill="none" stroke="none" pointer-events="all"/></g><g><g fill="rgb(0, 0, 0)" font-family="&quot;Helvetica&quot;" text-anchor="middle" font-size="21px"><text x="876.5" y="84">hartIsInReset</text></g></g></g><g data-cell-id="U9F5NmU2L__z_BYRfejg-138"><g><path d="M 852 360 L 852 300 L 1012 300 L 1012 90 L 852 90" fill="none" stroke="rgb(0, 0, 0)" stroke-miterlimit="10" pointer-events="stroke"/></g></g><g data-cell-id="U9F5NmU2L__z_BYRfejg-139"><g><path d="M 859.5 134 L 862 90" fill="none" stroke="rgb(0, 0, 0)" stroke-miterlimit="10" pointer-events="stroke"/></g></g><g data-cell-id="U9F5NmU2L__z_BYRfejg-140"><g><rect x="827.75" y="100" width="28.5" height="20" fill="none" stroke="none" pointer-events="all"/></g><g><g fill="rgb(0, 0, 0)" font-family="&quot;Helvetica&quot;" text-anchor="middle" font-size="12px"><text x="841.5" y="114.5">1</text></g></g></g><g data-cell-id="U9F5NmU2L__z_BYRfejg-141"><g><path d="M 842 340 L 862 330" fill="none" stroke="rgb(0, 0, 0)" stroke-miterlimit="10" pointer-events="stroke"/></g></g><g data-cell-id="U9F5NmU2L__z_BYRfejg-142"><g><path d="M 852 120 L 872 110" fill="none" stroke="rgb(0, 0, 0)" stroke-miterlimit="10" pointer-events="stroke"/></g></g><g data-cell-id="U9F5NmU2L__z_BYRfejg-143"><g><rect x="819.5" y="320" width="28.5" height="20" fill="none" stroke="none" pointer-events="all"/></g><g><g fill="rgb(0, 0, 0)" font-family="&quot;Helvetica&quot;" text-anchor="middle" font-size="12px"><text x="833.25" y="334.5">1</text></g></g></g><g data-cell-id="U9F5NmU2L__z_BYRfejg-144"><g><path d="M 672 100 L 692 80" fill="none" stroke="rgb(0, 0, 0)" stroke-miterlimit="10" pointer-events="stroke"/></g></g><g data-cell-id="U9F5NmU2L__z_BYRfejg-145"><g><rect x="642" y="60" width="60" height="30" fill="none" stroke="none" pointer-events="all"/></g><g><g fill="rgb(0, 0, 0)" font-family="&quot;Helvetica&quot;" text-anchor="middle" font-size="12px"><text x="671.5" y="79.5">coreNum</text></g></g></g><g data-cell-id="U9F5NmU2L__z_BYRfejg-146"><g><path d="M 541.36 112.28 L 541.64 40 L 1142.64 40 L 1142.64 410" fill="none" stroke="rgb(0, 0, 0)" stroke-miterlimit="10" pointer-events="stroke"/></g></g><g data-cell-id="U9F5NmU2L__z_BYRfejg-103"><g><rect x="462" y="110" width="120" height="190" fill="#cce5ff" stroke="#36393d" pointer-events="all"/></g><g><g fill="rgb(0, 0, 0)" font-family="&quot;Helvetica&quot;" text-anchor="middle" font-size="21px"><text x="521.5" y="214">DM</text></g></g></g><g data-cell-id="U9F5NmU2L__z_BYRfejg-104"><g><path d="M 432 200 L 632 200" fill="none" stroke="rgb(0, 0, 0)" stroke-miterlimit="10" stroke-dasharray="3 3" pointer-events="stroke"/></g></g><g data-cell-id="U9F5NmU2L__z_BYRfejg-105"><g><rect x="482" y="122.5" width="80" height="70" fill="#ffcc99" stroke="#36393d" pointer-events="all"/></g><g><g fill="rgb(0, 0, 0)" font-family="&quot;Helvetica&quot;" text-anchor="middle" font-size="21px"><text x="521.5" y="166.5">outer</text></g></g></g><g data-cell-id="U9F5NmU2L__z_BYRfejg-106"><g><rect x="482" y="224" width="70" height="66" fill="#ffcc99" stroke="#36393d" pointer-events="all"/></g><g><g fill="rgb(0, 0, 0)" font-family="&quot;Helvetica&quot;" text-anchor="middle" font-size="21px"><text x="516.5" y="266">inner</text></g></g></g><g data-cell-id="U9F5NmU2L__z_BYRfejg-107"><g><rect x="562" y="210" width="50" height="30" fill="#fad9d5" stroke="#ae4132" pointer-events="all"/></g><g><g fill="rgb(0, 0, 0)" font-family="&quot;Helvetica&quot;" text-anchor="middle" font-size="12px"><text x="586.5" y="229.5">axiMatser</text></g></g></g><g data-cell-id="U9F5NmU2L__z_BYRfejg-108"><g><rect x="562" y="254.67" width="50" height="30" fill="#fad9d5" stroke="#ae4132" pointer-events="all"/></g><g><g fill="rgb(0, 0, 0)" font-family="&quot;Helvetica&quot;" text-anchor="middle" font-size="12px"><text x="586.5" y="274.17">axiSlave</text></g></g></g><g data-cell-id="U9F5NmU2L__z_BYRfejg-109"><g><rect x="612" y="275" width="60" height="30" fill="none" stroke="none" pointer-events="all"/></g><g><g fill="rgb(0, 0, 0)" font-family="&quot;Helvetica&quot;" text-anchor="middle" font-size="12px"><text x="641.5" y="294.5">debug MMIO</text></g></g></g><g data-cell-id="U9F5NmU2L__z_BYRfejg-110"><g><rect x="612" y="200" width="60" height="30" fill="none" stroke="none" pointer-events="all"/></g><g><g fill="rgb(0, 0, 0)" font-family="&quot;Helvetica&quot;" text-anchor="middle" font-size="12px"><text x="641.5" y="219.5">sysbus</text></g></g></g><g data-cell-id="U9F5NmU2L__z_BYRfejg-111"><g><path d="M 182 170 L 479.55 168.66" fill="none" stroke="rgb(0, 0, 0)" stroke-miterlimit="10" pointer-events="stroke"/><path d="M 484.8 168.64 L 477.82 172.17 L 479.55 168.66 L 477.79 165.17 Z" fill="rgb(0, 0, 0)" stroke="rgb(0, 0, 0)" stroke-miterlimit="10" pointer-events="all"/></g></g><g data-cell-id="U9F5NmU2L__z_BYRfejg-113"><g><path d="M 182 360 L 342 360 L 342 265 L 476.61 264.86" fill="none" stroke="rgb(0, 0, 0)" stroke-miterlimit="10" pointer-events="stroke"/><path d="M 481.86 264.86 L 474.87 268.36 L 476.61 264.86 L 474.86 261.36 Z" fill="rgb(0, 0, 0)" stroke="rgb(0, 0, 0)" stroke-miterlimit="10" pointer-events="all"/></g></g></g></g></g></svg>