<svg xmlns="http://www.w3.org/2000/svg" xmlns:xlink="http://www.w3.org/1999/xlink" version="1.1" width="1282px" height="226px" viewBox="-0.5 -0.5 1282 226"><defs/><g><g data-cell-id="l1LrT6J-k6GhhXT9h2ZT-0"><g data-cell-id="l1LrT6J-k6GhhXT9h2ZT-1"><g data-cell-id="l1LrT6J-k6GhhXT9h2ZT-2"><g><rect x="510" y="55" width="480" height="170" fill="#b1ddf0" stroke="#10739e" pointer-events="all"/></g></g><g data-cell-id="l1LrT6J-k6GhhXT9h2ZT-41"><g><rect x="653.25" y="0" width="193.5" height="40" fill="none" stroke="none" pointer-events="all"/></g><g><g fill="rgb(0, 0, 0)" font-family="&quot;Helvetica&quot;" text-anchor="middle" font-size="25px"><text x="749.5" y="31">debugWrapper</text></g></g></g><g data-cell-id="l1LrT6J-k6GhhXT9h2ZT-48"><g><rect x="0" y="80" width="120" height="120" fill="#e1d5e7" stroke="#9673a6" pointer-events="all"/></g><g><g fill="rgb(0, 0, 0)" font-family="&quot;Helvetica&quot;" text-anchor="middle" font-size="25px"><text x="59.5" y="136">GDB/</text><text x="59.5" y="166">openocd</text></g></g></g><g data-cell-id="l1LrT6J-k6GhhXT9h2ZT-50"><g><rect x="250" y="80" width="120" height="120" fill="#e1d5e7" stroke="#9673a6" pointer-events="all"/></g><g><g fill="rgb(0, 0, 0)" font-family="&quot;Helvetica&quot;" text-anchor="middle" font-size="25px"><text x="309.5" y="136">Jtag</text><text x="309.5" y="166">仿真器</text></g></g></g><g data-cell-id="l1LrT6J-k6GhhXT9h2ZT-51"><g><path d="M 650 135 L 718.63 135" fill="none" stroke="rgb(0, 0, 0)" stroke-miterlimit="10" pointer-events="stroke"/><path d="M 723.88 135 L 716.88 138.5 L 718.63 135 L 716.88 131.5 Z" fill="rgb(0, 0, 0)" stroke="rgb(0, 0, 0)" stroke-miterlimit="10" pointer-events="all"/></g></g><g data-cell-id="l1LrT6J-k6GhhXT9h2ZT-52"><g><rect x="530" y="75" width="120" height="120" fill="#e1d5e7" stroke="#9673a6" pointer-events="all"/></g><g><g fill="rgb(0, 0, 0)" font-family="&quot;Helvetica&quot;" text-anchor="middle" font-size="25px"><text x="589.5" y="146">JtagDTM</text></g></g></g><g data-cell-id="l1LrT6J-k6GhhXT9h2ZT-53"><g><path d="M 725 165 L 656.37 165" fill="none" stroke="rgb(0, 0, 0)" stroke-miterlimit="10" pointer-events="stroke"/><path d="M 651.12 165 L 658.12 161.5 L 656.37 165 L 658.12 168.5 Z" fill="rgb(0, 0, 0)" stroke="rgb(0, 0, 0)" stroke-miterlimit="10" pointer-events="all"/></g></g><g data-cell-id="l1LrT6J-k6GhhXT9h2ZT-54"><g><rect x="725" y="75" width="120" height="120" fill="#e1d5e7" stroke="#9673a6" pointer-events="all"/></g><g><g fill="rgb(0, 0, 0)" font-family="&quot;Helvetica&quot;" text-anchor="middle" font-size="25px"><text x="784.5" y="146">DMI</text></g></g></g><g data-cell-id="l1LrT6J-k6GhhXT9h2ZT-55"><g><rect x="850" y="75" width="120" height="120" fill="#dae8fc" stroke="#6c8ebf" pointer-events="all"/></g><g><g fill="rgb(0, 0, 0)" font-family="&quot;Helvetica&quot;" text-anchor="middle" font-size="25px"><text x="909.5" y="146">DM</text></g></g></g><g data-cell-id="l1LrT6J-k6GhhXT9h2ZT-56"><g/><g data-cell-id="l1LrT6J-k6GhhXT9h2ZT-57"><g><rect x="1130" y="65" width="120" height="120" fill="#e1d5e7" stroke="#9673a6" pointer-events="all"/></g><g><g fill="rgb(0, 0, 0)" font-family="&quot;Helvetica&quot;" text-anchor="middle" font-size="25px"><text x="1189.5" y="136">hart</text></g></g></g><g data-cell-id="l1LrT6J-k6GhhXT9h2ZT-58"><g><rect x="1140" y="75" width="120" height="120" fill="#e1d5e7" stroke="#9673a6" pointer-events="all"/></g><g><g fill="rgb(0, 0, 0)" font-family="&quot;Helvetica&quot;" text-anchor="middle" font-size="25px"><text x="1199.5" y="146">hart</text></g></g></g><g data-cell-id="l1LrT6J-k6GhhXT9h2ZT-59"><g><rect x="1150" y="85" width="120" height="120" fill="#e1d5e7" stroke="#9673a6" pointer-events="all"/></g><g><g fill="rgb(0, 0, 0)" font-family="&quot;Helvetica&quot;" text-anchor="middle" font-size="25px"><text x="1209.5" y="156">hart</text></g></g></g><g data-cell-id="l1LrT6J-k6GhhXT9h2ZT-60"><g><rect x="1160" y="95" width="120" height="120" fill="#e1d5e7" stroke="#9673a6" pointer-events="all"/></g><g><g fill="rgb(0, 0, 0)" font-family="&quot;Helvetica&quot;" text-anchor="middle" font-size="25px"><text x="1219.5" y="166">hart</text></g></g></g></g><g data-cell-id="l1LrT6J-k6GhhXT9h2ZT-63"><g><rect x="900" y="155" width="55" height="31" fill="#ffe6cc" stroke="#d79b00" pointer-events="all"/></g><g><g fill="rgb(0, 0, 0)" font-family="&quot;Helvetica&quot;" text-anchor="middle" font-size="13px"><text x="927" y="175.5">dminner</text></g></g></g><g data-cell-id="l1LrT6J-k6GhhXT9h2ZT-67"><g><rect x="657.5" y="97" width="60" height="30" fill="none" stroke="none" pointer-events="all"/></g><g><g fill="rgb(0, 0, 0)" font-family="&quot;Helvetica&quot;" text-anchor="middle" font-size="23px"><text x="687" y="122">req</text></g></g></g><g data-cell-id="l1LrT6J-k6GhhXT9h2ZT-68"><g><rect x="657.5" y="165" width="60" height="30" fill="none" stroke="none" pointer-events="all"/></g><g><g fill="rgb(0, 0, 0)" font-family="&quot;Helvetica&quot;" text-anchor="middle" font-size="23px"><text x="687" y="190">resp</text></g></g></g><g data-cell-id="SsGtNJ7XYgT378yBZqIU-0"><g><path d="M 1019.51 144.14 L 1019.52 154.64 L 1000.5 139.17 L 1019.48 123.64 L 1019.49 134.14 L 1090.49 134.03 L 1090.48 123.53 L 1109.5 139 L 1090.52 154.53 L 1090.51 144.03 Z" fill="#fff2cc" stroke="#d6b656" stroke-miterlimit="10" pointer-events="all"/></g></g><g data-cell-id="SsGtNJ7XYgT378yBZqIU-2"><g><path d="M 409.51 144.31 L 409.52 154.81 L 390.5 139.34 L 409.48 123.81 L 409.49 134.31 L 480.49 134.2 L 480.48 123.7 L 499.5 139.17 L 480.52 154.7 L 480.51 144.2 Z" fill="#fff2cc" stroke="#d6b656" stroke-miterlimit="10" pointer-events="all"/></g></g><g data-cell-id="SsGtNJ7XYgT378yBZqIU-3"><g><path d="M 149.51 144.31 L 149.52 154.81 L 130.5 139.34 L 149.48 123.81 L 149.49 134.31 L 220.49 134.2 L 220.48 123.7 L 239.5 139.17 L 220.52 154.7 L 220.51 144.2 Z" fill="#fff2cc" stroke="#d6b656" stroke-miterlimit="10" pointer-events="all"/></g></g></g></g></g></svg>