<?xml version="1.0" encoding="UTF-8"?>
<svg id="_图层_2" data-name="图层 2" xmlns="http://www.w3.org/2000/svg" viewBox="0 0 469.36 81.33">
  <defs>
    <style>
      .cls-1 {
        fill: #231815;
      }

      .cls-1, .cls-2, .cls-3 {
        fill-rule: evenodd;
      }

      .cls-2 {
        fill: #de4f2a;
      }

      .cls-3 {
        fill: #040000;
      }

      .cls-4 {
        fill: none;
        stroke: #ec6c2e;
        stroke-linecap: round;
        stroke-linejoin: round;
        stroke-width: .57px;
      }
    </style>
  </defs>
  <g id="_香山开源社区" data-name="香山开源社区">
    <g>
      <path class="cls-3" d="M7.32,33.29c.35,0,.64-.29,.64-.64s-.29-.64-.64-.64-.64,.29-.64,.64,.29,.64,.64,.64m0,1.28c1.06,0,1.91-.86,1.91-1.91s-.86-1.91-1.91-1.91-1.91,.86-1.91,1.91,.86,1.91,1.91,1.91Z"/>
      <polygon class="cls-1" points="57.56 22.63 49.86 33.05 36.65 10.89 23.44 33.05 15.75 22.63 8.6 32.3 7.32 31.36 15.75 19.95 23.3 30.18 36.65 7.78 50 30.18 57.56 19.95 68.35 34.56 66.37 34.56 57.56 22.63"/>
      <polygon class="cls-1" points="69.2 31.68 57.56 15.93 50.22 25.86 36.65 3.11 23.09 25.86 15.75 15.93 1.98 34.56 0 34.56 15.75 13.24 22.95 22.99 36.65 0 50.36 22.99 57.56 13.24 71.18 31.68 69.2 31.68"/>
      <path class="cls-3" d="M70.78,33.29c.35,0,.64-.29,.64-.64s-.29-.64-.64-.64-.64,.29-.64,.64,.29,.64,.64,.64m0,1.28c1.06,0,1.91-.86,1.91-1.91s-.86-1.91-1.91-1.91-1.91,.86-1.91,1.91,.86,1.91,1.91,1.91Z"/>
      <path class="cls-2" d="M0,35.56l3.38,2.7c1.53,1.23,.97,3.65,.54,4.84l-2.78,7.76s7.51-.08,9.14-.04c1.63,.04,2.01,.49,2.28,1.3l1.74,5.07,6.16-5.8c1.34-1.26,3.79-.7,3.42,1.98l-2.26,16.44,5.84-2.96c2.8-1.42,3.48,.93,3.63,1.27l5.55,13.21,5.55-13.21c.14-.34,.83-2.68,3.63-1.27l5.84,2.96-2.26-16.44c-.37-2.67,2.09-3.24,3.42-1.98l6.16,5.8,1.74-5.07c.28-.81,.65-1.26,2.28-1.3,1.63-.04,9.14,.04,9.14,.04l-2.78-7.76c-.42-1.19-.99-3.61,.54-4.84l3.38-2.7H0Z"/>
      <line class="cls-4" x1="36.65" y1="73.49" x2="36.65" y2="37.64"/>
      <line class="cls-4" x1="5.75" y1="47.29" x2="23.32" y2="37.14"/>
      <path class="cls-4" d="M19.84,39.15c1.06,1.72,1.24,2.9,.35,4.8-.89,1.9-4.74,9.68-4.74,9.68"/>
      <path class="cls-4" d="M36.65,54.09c-.77-.02-1.71,.55-2.25,1.03l-6.89,6.2"/>
      <path class="cls-4" d="M16.22,41.09c-.44-.81-.87-1.16-1.83-1.24-.96-.08-4.94-.34-4.94-.34"/>
      <line class="cls-4" x1="67.56" y1="47.29" x2="49.98" y2="37.14"/>
      <path class="cls-4" d="M53.46,39.15c-1.06,1.72-1.24,2.9-.35,4.8,.89,1.9,4.74,9.68,4.74,9.68"/>
      <path class="cls-4" d="M57.09,41.09c.44-.81,.87-1.16,1.83-1.24,.96-.08,4.94-.34,4.94-.34"/>
      <path class="cls-4" d="M36.65,40.82c2.01-.06,3.13,.37,4.34,2.09,1.2,1.72,6.02,8.94,6.02,8.94"/>
      <path class="cls-4" d="M36.65,42.41c-1.74,0-2.78,.35-3.58,1.1l-6.77,6.26"/>
      <path class="cls-4" d="M36.65,56.01c.77-.02,1.71,.41,2.25,.76l6.89,4.56"/>
    </g>
    <g>
      <g>
        <path d="M124.57,10.25c-3.47,.89-7.74,1.57-12.23,2.12v4.19h16.8v3.6h-12.78c3.72,3.34,9.01,6.39,13.88,7.96-.89,.8-2.07,2.28-2.62,3.26-1.31-.51-2.67-1.14-4.02-1.86v16.59h-4.19v-1.4h-17.81v1.44h-3.98V29.59c-1.48,.85-3,1.57-4.53,2.16-.59-.97-1.78-2.41-2.67-3.22,4.99-1.65,10.16-4.82,13.75-8.38h-12.74v-3.6h16.76v-3.77c-4.15,.38-8.34,.63-12.27,.76-.08-.97-.59-2.5-.97-3.39,9.44-.42,20.48-1.48,26.7-3.09l2.92,3.17Zm-1.4,19c-3.98-2.2-7.87-5.2-10.83-8.42v7.36h-4.15v-7.45c-2.71,3.3-6.26,6.26-10.03,8.5h25.01Zm-3.77,6.26v-3.13h-17.81v3.13h17.81Zm-17.81,6.09h17.81v-3.26h-17.81v3.26Z"/>
        <path d="M139.84,15.84v23.02h10.58V7.29h4.23v31.56h10.75V15.71h4.15v30.3h-4.15v-3.09h-29.66V15.84h4.1Z"/>
        <path d="M185.75,24.64V13.3h-8.42v-3.81h35.42v3.81h-7.83v11.34h9.14v3.81h-9.14v17.73h-4.19V28.45h-11.09c-.68,6.52-3,13.03-10.62,17.86-.68-.89-2.2-2.33-3.22-2.96,6.73-4.15,8.97-9.48,9.65-14.89h-9.65v-3.81h9.94Zm4.1-11.34v11.34h10.87V13.3h-10.87Z"/>
        <path d="M219.77,18.67c2.24,1.14,5.46,2.92,7.11,4.06l-2.37,3.22c-1.57-1.18-4.74-3.13-7.07-4.44l2.33-2.83Zm4.65,11l3.26,2.2c-1.69,4.53-3.89,9.65-5.88,13.71l-3.6-2.2c1.82-3.3,4.36-8.84,6.22-13.71Zm-2.58-22.38c2.24,1.23,5.46,3.13,7.07,4.32l-2.41,3.22c-1.52-1.27-4.74-3.3-6.98-4.74l2.33-2.79Zm34.57,1.69v3.64h-22.3v8.04c0,7.45-.72,18.32-5.75,25.39-.72-.63-2.41-1.69-3.38-2.12,4.78-6.73,5.25-16.33,5.25-23.27V8.98h26.19Zm-15.57,25.98c-1.35,3.09-3.43,6.56-5.16,8.76-.72-.59-2.24-1.52-3.13-1.99,1.78-2.03,3.6-5.04,4.74-7.79l3.55,1.02Zm7.02-21.24l-1.69,3.22h8.8v14.98h-7.79v10.28c0,1.82-.3,2.79-1.61,3.34-1.31,.55-3.17,.59-5.92,.55-.17-.97-.63-2.41-1.06-3.43,1.78,.08,3.55,.04,4.06,.04,.55,0,.72-.17,.72-.63v-10.15h-7.24v-14.98h6.09c.42-1.31,.93-2.88,1.18-4.06l4.44,.85Zm-8.17,9.27h11.55v-3.09h-11.55v3.09Zm0,5.92h11.55v-3.13h-11.55v3.13Zm13.08,4.65c1.57,2.58,3.55,6.05,4.53,8.12l-3.72,1.65c-.85-2.16-2.75-5.75-4.27-8.42l3.47-1.35Z"/>
        <path d="M271.47,7.92c-.34,1.9-.72,3.77-1.18,5.63h6.6l.76-.13,2.67,.72c-.89,8.5-2.79,15.19-5.58,20.35,4.61,5.25,10.62,6.39,16.88,6.39,1.44,0,6.05,0,7.87-.04-.63,.97-1.35,3.05-1.57,4.19h-6.52c-7.19,0-13.79-1.35-18.87-7.02-2.62,3.68-5.84,6.35-9.61,8.25-.68-.93-2.33-2.5-3.34-3.13,4.19-1.95,7.66-4.74,10.37-8.67-1.48-2.37-2.75-5.29-3.81-8.76-.8,1.69-1.65,3.17-2.58,4.4-.76-.68-2.2-1.73-3.26-2.24,3.22-4.36,5.75-12.52,6.94-20.86l4.23,.93Zm-2.2,9.35l-1.06,3.34c1.02,4.15,2.33,7.45,3.85,10.11,1.74-3.64,3-8.08,3.72-13.46h-6.52Zm18.91-10.37v10.79l1.19-.68c3.13,3.51,7.11,8.29,8.97,11.42l-3.55,2.16c-1.35-2.45-4.02-6.05-6.6-9.27v16.92h-4.27V6.91h4.27Z"/>
        <path d="M307.43,36.27v-10.83h-4.61v-3.68h4.61V13.26h-5.04v-3.72h13.58v3.72h-4.74v8.5h4.1v3.68h-4.1v9.65l4.44-1.44,.68,3.81c-4.61,1.57-9.61,3.26-13.46,4.53l-.97-4.1c1.57-.42,3.47-.97,5.5-1.61Zm19.29,4.87v-5.08h-9.27v-3.64h9.27v-4.36h-8.89V8.73h21.92V28.07h-8.97v4.36h9.52v3.64h-9.52v5.08h10.92v3.64h-27.38v-3.64h12.4Zm-5.25-24.37h5.59v-4.61h-5.59v4.61Zm0,7.87h5.59v-4.65h-5.59v4.65Zm9.01-7.87h5.46v-4.61h-5.46v4.61Zm0,7.87h5.46v-4.65h-5.46v4.65Z"/>
        <path d="M370.43,20.53h-4.32V8.69h14.05v11.85h-8.21c1.9,.76,3.98,1.86,5.16,2.79l-1.23,1.27h7.36v3.55h-10.83c3.13,2.54,7.57,4.61,11.93,5.71-.89,.72-1.99,2.2-2.54,3.22l-1.61-.55v9.35h-3.89v-.89h-6.43v1.14h-3.68v-13.2h6.85c-2.12-1.4-4.02-3.05-5.63-4.78h-7.57c-1.61,1.69-3.43,3.3-5.58,4.78h7.49v12.95h-3.85v-.89h-5.97v1.14h-3.68v-9.86l-2.03,.89c-.38-.93-1.4-2.41-2.16-3.09,4.32-1.61,7.79-3.64,10.49-5.92h-9.52v-3.55h13.03c1.1-1.35,1.95-2.71,2.58-4.06h-12.4V8.69h13.5v11.59l3.13,.55c-.63,1.27-1.35,2.54-2.2,3.77h11c-1.4-.89-3.3-1.86-4.91-2.45l1.65-1.61Zm-18.58-3.43h6.09v-5.04h-6.09v5.04Zm6.05,24.41v-5.12h-5.97v5.12h5.97Zm11.89-24.41h6.52v-5.04h-6.52v5.04Zm6.52,24.41v-5.12h-6.43v5.12h6.43Z"/>
        <path d="M394.76,6.74c1.57,1.65,3.22,3.89,4.02,5.46l-3.17,1.86h4.49l.68-.17,2.16,1.52c-1.27,3.17-3.05,6.22-5.16,9.01,1.69,1.52,4.95,4.74,5.8,5.59l-2.5,3.34c-.85-1.18-2.41-3.13-3.85-4.78v17.52h-3.94V29.5c-1.78,1.73-3.6,3.22-5.42,4.4-.3-1.1-1.14-3.26-1.65-4.02,4.49-2.58,9.01-7.24,11.72-12.19h-10.54v-3.64h8.04c-.72-1.57-2.33-3.94-3.77-5.63l3.09-1.69Zm21.71,.17v12.95h8.63v3.89h-8.63v16.92h9.6v3.94h-24.46v-3.94h10.79V23.75h-8.89v-3.89h8.89V6.91h4.06Z"/>
        <path d="M466.9,12.79h-31.57v28.26h32.67v3.85h-36.56V8.94h35.46v3.85Zm-25.47,3.22c3.05,2.37,6.47,5.2,9.82,8.08,2.75-3,5.12-6.22,7.07-9.56l3.77,1.52c-2.24,3.72-4.95,7.28-7.91,10.58,3.68,3.26,7.02,6.43,9.22,8.97l-3.17,2.96c-2.07-2.54-5.25-5.75-8.8-9.06-3.55,3.55-7.41,6.64-11.21,9.1-.68-.8-2.2-2.37-3.13-3.09,4.02-2.28,7.95-5.25,11.47-8.63-3.3-3-6.81-5.97-9.9-8.5l2.79-2.37Z"/>
      </g>
      <g>
        <path d="M92.67,65.87l-3.38-6.1h2.2l1.52,2.96c.31,.58,.58,1.15,.97,1.91h.07c.32-.77,.56-1.33,.87-1.91l1.47-2.96h2.08l-3.37,6.19,3.61,6.41h-2.21l-1.66-3.13c-.32-.65-.65-1.28-1.04-2.05h-.07c-.34,.77-.67,1.4-.97,2.05l-1.61,3.13h-2.1l3.61-6.49Z"/>
        <path d="M100.22,60.01c0-.68,.5-1.16,1.23-1.16s1.21,.48,1.21,1.16c0,.73-.5,1.2-1.21,1.2s-1.23-.46-1.23-1.2Zm.24,2.94h1.97v9.42h-1.97v-9.42Z"/>
        <path d="M104.83,69.87c0-2.03,1.71-3.08,5.62-3.5-.02-1.08-.41-2.03-1.79-2.03-.99,0-1.91,.44-2.72,.96l-.74-1.33c.97-.62,2.29-1.23,3.79-1.23,2.34,0,3.42,1.47,3.42,3.98v5.66h-1.61l-.15-1.08h-.07c-.85,.73-1.86,1.32-2.99,1.32-1.62,0-2.77-1.08-2.77-2.73Zm5.62,.05v-2.29c-2.79,.32-3.73,1.04-3.73,2.08,0,.94,.63,1.32,1.47,1.32s1.49-.39,2.26-1.11Z"/>
        <path d="M115.2,62.95h1.61l.17,1.32h.04c.85-.85,1.83-1.54,3.11-1.54,2,0,2.89,1.33,2.89,3.73v5.91h-1.96v-5.67c0-1.62-.48-2.26-1.59-2.26-.87,0-1.45,.43-2.29,1.26v6.67h-1.97v-9.42Z"/>
        <path d="M125.18,74.11c0-.79,.5-1.52,1.37-2.05v-.07c-.48-.32-.86-.82-.86-1.57s.51-1.38,1.06-1.74v-.07c-.65-.5-1.25-1.38-1.25-2.51,0-2.12,1.69-3.37,3.64-3.37,.53,0,1.01,.1,1.37,.22h3.33v1.49h-1.78c.34,.39,.6,1.01,.6,1.71,0,2.07-1.55,3.25-3.52,3.25-.41,0-.91-.1-1.32-.27-.29,.26-.51,.51-.51,.97,0,.55,.38,.92,1.57,.92h1.74c2.21,0,3.37,.68,3.37,2.27,0,1.83-1.9,3.3-4.91,3.3-2.27,0-3.91-.84-3.91-2.48Zm6.9-.5c0-.79-.62-1.03-1.74-1.03h-1.42c-.44,0-.87-.03-1.26-.14-.56,.41-.79,.89-.79,1.37,0,.91,.94,1.47,2.5,1.47,1.64,0,2.72-.8,2.72-1.67Zm-1.16-7.52c0-1.25-.79-1.98-1.78-1.98s-1.78,.72-1.78,1.98,.8,2.02,1.78,2.02,1.78-.75,1.78-2.02Z"/>
        <path d="M135.02,70.74l1.16-1.37c.91,.89,2.14,1.49,3.37,1.49,1.5,0,2.34-.72,2.34-1.78,0-1.15-.84-1.5-2-2.02l-1.74-.75c-1.23-.51-2.56-1.45-2.56-3.3,0-1.98,1.73-3.47,4.14-3.47,1.49,0,2.87,.62,3.79,1.59l-1.01,1.26c-.79-.7-1.67-1.13-2.79-1.13-1.28,0-2.1,.63-2.1,1.61,0,1.09,1.01,1.49,2.02,1.91l1.73,.73c1.5,.63,2.56,1.56,2.56,3.4,0,2.02-1.67,3.67-4.43,3.67-1.73,0-3.33-.7-4.48-1.86Z"/>
        <path d="M146.12,58.75h1.96v3.61l-.09,1.86c.82-.8,1.76-1.49,3.04-1.49,2,0,2.89,1.33,2.89,3.73v5.91h-1.97v-5.67c0-1.62-.48-2.26-1.59-2.26-.87,0-1.45,.43-2.29,1.26v6.67h-1.96v-13.62Z"/>
        <path d="M156.18,69.87c0-2.03,1.71-3.08,5.62-3.5-.02-1.08-.41-2.03-1.79-2.03-.99,0-1.91,.44-2.72,.96l-.73-1.33c.97-.62,2.29-1.23,3.79-1.23,2.34,0,3.42,1.47,3.42,3.98v5.66h-1.61l-.15-1.08h-.07c-.85,.73-1.86,1.32-2.99,1.32-1.62,0-2.77-1.08-2.77-2.73Zm5.62,.05v-2.29c-2.79,.32-3.73,1.04-3.73,2.08,0,.94,.63,1.32,1.47,1.32s1.49-.39,2.26-1.11Z"/>
        <path d="M166.55,62.95h1.61l.17,1.32h.04c.85-.85,1.83-1.54,3.11-1.54,2,0,2.89,1.33,2.89,3.73v5.91h-1.96v-5.67c0-1.62-.48-2.26-1.59-2.26-.87,0-1.45,.43-2.29,1.26v6.67h-1.97v-9.42Z"/>
        <path d="M180.52,66.03c0-4.07,2.26-6.48,5.49-6.48s5.49,2.43,5.49,6.48-2.24,6.58-5.49,6.58-5.49-2.53-5.49-6.58Zm8.94,0c0-2.94-1.37-4.75-3.45-4.75s-3.44,1.81-3.44,4.75,1.35,4.84,3.44,4.84,3.45-1.9,3.45-4.84Z"/>
        <path d="M193.93,62.95h1.61l.17,1.04h.03c.82-.68,1.85-1.26,2.91-1.26,2.38,0,3.71,1.88,3.71,4.79,0,3.23-1.93,5.09-4.05,5.09-.82,0-1.68-.39-2.46-1.08l.05,1.61v3.04h-1.96v-13.23Zm6.39,4.6c0-1.97-.63-3.18-2.2-3.18-.74,0-1.44,.39-2.22,1.15v4.6c.73,.62,1.47,.84,2.03,.84,1.37,0,2.39-1.21,2.39-3.4Z"/>
        <path d="M204.03,67.67c0-3.06,2.1-4.94,4.29-4.94,2.49,0,3.84,1.79,3.84,4.44,0,.39-.05,.77-.1,1.01h-6.1c.15,1.79,1.28,2.87,2.91,2.87,.84,0,1.55-.26,2.24-.7l.68,1.25c-.85,.58-1.95,1.01-3.16,1.01-2.58,0-4.6-1.83-4.6-4.94Zm6.43-.85c0-1.61-.74-2.53-2.1-2.53-1.18,0-2.22,.89-2.41,2.53h4.51Z"/>
        <path d="M214.36,62.95h1.61l.17,1.32h.04c.85-.85,1.83-1.54,3.11-1.54,2,0,2.89,1.33,2.89,3.73v5.91h-1.96v-5.67c0-1.62-.48-2.26-1.59-2.26-.87,0-1.45,.43-2.29,1.26v6.67h-1.97v-9.42Z"/>
        <path d="M224.34,66.81h4.51v1.45h-4.51v-1.45Z"/>
        <path d="M230.01,70.74l1.16-1.37c.91,.89,2.14,1.49,3.37,1.49,1.5,0,2.34-.72,2.34-1.78,0-1.15-.84-1.5-2-2.02l-1.74-.75c-1.23-.51-2.56-1.45-2.56-3.3,0-1.98,1.73-3.47,4.14-3.47,1.49,0,2.87,.62,3.79,1.59l-1.01,1.26c-.79-.7-1.67-1.13-2.79-1.13-1.28,0-2.1,.63-2.1,1.61,0,1.09,1.01,1.49,2.02,1.91l1.73,.73c1.5,.63,2.56,1.56,2.56,3.4,0,2.02-1.67,3.67-4.43,3.67-1.73,0-3.33-.7-4.48-1.86Z"/>
        <path d="M240.45,67.67c0-3.13,2.1-4.94,4.44-4.94s4.41,1.81,4.41,4.94-2.08,4.94-4.41,4.94-4.44-1.81-4.44-4.94Zm6.84,0c0-1.98-.92-3.32-2.39-3.32s-2.41,1.33-2.41,3.32,.92,3.3,2.41,3.3,2.39-1.3,2.39-3.3Z"/>
        <path d="M251.48,68.88v-5.93h1.98v5.69c0,1.61,.48,2.26,1.57,2.26,.87,0,1.49-.41,2.26-1.4v-6.55h1.98v9.42h-1.62l-.15-1.42h-.05c-.85,.99-1.78,1.66-3.06,1.66-2.02,0-2.91-1.33-2.91-3.73Z"/>
        <path d="M262.21,62.95h1.61l.17,1.69h.03c.67-1.2,1.66-1.91,2.68-1.91,.46,0,.75,.07,1.04,.19l-.34,1.73c-.34-.1-.56-.15-.96-.15-.77,0-1.69,.53-2.27,2.03v5.84h-1.96v-9.42Z"/>
        <path d="M268.34,67.67c0-3.13,2.17-4.94,4.65-4.94,1.2,0,2.07,.48,2.75,1.08l-.97,1.28c-.51-.44-1.04-.73-1.67-.73-1.59,0-2.72,1.33-2.72,3.32s1.09,3.3,2.65,3.3c.79,0,1.49-.36,2.05-.85l.82,1.32c-.87,.77-1.98,1.18-3.06,1.18-2.55,0-4.5-1.81-4.5-4.94Z"/>
        <path d="M276.73,67.67c0-3.06,2.1-4.94,4.29-4.94,2.49,0,3.84,1.79,3.84,4.44,0,.39-.05,.77-.1,1.01h-6.1c.15,1.79,1.28,2.87,2.91,2.87,.84,0,1.55-.26,2.24-.7l.68,1.25c-.85,.58-1.95,1.01-3.16,1.01-2.58,0-4.6-1.83-4.6-4.94Zm6.43-.85c0-1.61-.74-2.53-2.1-2.53-1.18,0-2.22,.89-2.41,2.53h4.51Z"/>
        <path d="M291.08,59.77h3.81c2.8,0,4.82,.97,4.82,3.83s-2.02,4-4.75,4h-1.9v4.77h-1.98v-12.6Zm3.71,6.22c1.98,0,2.96-.77,2.96-2.39s-1.04-2.22-3.04-2.22h-1.64v4.61h1.73Z"/>
        <path d="M301.98,62.95h1.61l.17,1.69h.03c.67-1.2,1.66-1.91,2.68-1.91,.46,0,.75,.07,1.04,.19l-.34,1.73c-.34-.1-.56-.15-.96-.15-.77,0-1.69,.53-2.27,2.03v5.84h-1.96v-9.42Z"/>
        <path d="M308.11,67.67c0-3.13,2.1-4.94,4.44-4.94s4.41,1.81,4.41,4.94-2.08,4.94-4.41,4.94-4.44-1.81-4.44-4.94Zm6.84,0c0-1.98-.92-3.32-2.39-3.32s-2.41,1.33-2.41,3.32,.92,3.3,2.41,3.3,2.39-1.3,2.39-3.3Z"/>
        <path d="M318.62,67.67c0-3.13,2.17-4.94,4.65-4.94,1.2,0,2.07,.48,2.75,1.08l-.97,1.28c-.51-.44-1.04-.73-1.67-.73-1.59,0-2.72,1.33-2.72,3.32s1.09,3.3,2.65,3.3c.79,0,1.49-.36,2.05-.85l.82,1.32c-.87,.77-1.98,1.18-3.06,1.18-2.55,0-4.5-1.81-4.5-4.94Z"/>
        <path d="M327.01,67.67c0-3.06,2.1-4.94,4.29-4.94,2.5,0,3.85,1.79,3.85,4.44,0,.39-.05,.77-.1,1.01h-6.1c.15,1.79,1.28,2.87,2.9,2.87,.84,0,1.56-.26,2.24-.7l.68,1.25c-.85,.58-1.95,1.01-3.16,1.01-2.58,0-4.6-1.83-4.6-4.94Zm6.43-.85c0-1.61-.73-2.53-2.1-2.53-1.18,0-2.22,.89-2.41,2.53h4.51Z"/>
        <path d="M336.35,71.29l.94-1.28c.82,.67,1.64,1.09,2.65,1.09,1.11,0,1.64-.55,1.64-1.26,0-.85-1.04-1.23-2.07-1.62-1.25-.48-2.63-1.15-2.63-2.73s1.26-2.75,3.35-2.75c1.25,0,2.31,.51,3.04,1.11l-.91,1.21c-.67-.48-1.33-.82-2.08-.82-1.06,0-1.54,.51-1.54,1.16,0,.79,.92,1.09,1.97,1.49,1.3,.5,2.75,1.08,2.75,2.84,0,1.59-1.25,2.89-3.57,2.89-1.3,0-2.63-.56-3.54-1.32Z"/>
        <path d="M344.55,71.29l.94-1.28c.82,.67,1.64,1.09,2.65,1.09,1.11,0,1.64-.55,1.64-1.26,0-.85-1.04-1.23-2.07-1.62-1.25-.48-2.63-1.15-2.63-2.73s1.26-2.75,3.35-2.75c1.25,0,2.31,.51,3.04,1.11l-.91,1.21c-.67-.48-1.33-.82-2.08-.82-1.06,0-1.54,.51-1.54,1.16,0,.79,.92,1.09,1.97,1.49,1.3,.5,2.75,1.08,2.75,2.84,0,1.59-1.25,2.89-3.57,2.89-1.3,0-2.63-.56-3.54-1.32Z"/>
        <path d="M353.08,67.67c0-3.13,2.1-4.94,4.44-4.94s4.41,1.81,4.41,4.94-2.08,4.94-4.41,4.94-4.44-1.81-4.44-4.94Zm6.84,0c0-1.98-.92-3.32-2.39-3.32s-2.41,1.33-2.41,3.32,.92,3.3,2.41,3.3,2.39-1.3,2.39-3.3Z"/>
        <path d="M364.25,62.95h1.61l.17,1.69h.04c.67-1.2,1.66-1.91,2.68-1.91,.46,0,.75,.07,1.04,.19l-.34,1.73c-.34-.1-.56-.15-.96-.15-.77,0-1.69,.53-2.27,2.03v5.84h-1.97v-9.42Z"/>
        <path d="M374.55,66.09c0-4.08,2.51-6.55,5.71-6.55,1.56,0,2.79,.75,3.55,1.59l-1.06,1.26c-.67-.65-1.45-1.13-2.46-1.13-2.17,0-3.69,1.81-3.69,4.77s1.42,4.82,3.64,4.82c1.14,0,2.02-.53,2.77-1.35l1.08,1.26c-1.03,1.18-2.29,1.83-3.93,1.83-3.16,0-5.61-2.38-5.61-6.51Z"/>
        <path d="M385.45,67.67c0-3.13,2.1-4.94,4.44-4.94s4.41,1.81,4.41,4.94-2.08,4.94-4.41,4.94-4.44-1.81-4.44-4.94Zm6.84,0c0-1.98-.92-3.32-2.39-3.32s-2.41,1.33-2.41,3.32,.92,3.3,2.41,3.3,2.39-1.3,2.39-3.3Z"/>
        <path d="M396.62,62.95h1.61l.17,1.33h.04c.82-.87,1.74-1.56,2.92-1.56,1.4,0,2.17,.65,2.58,1.73,.94-.99,1.88-1.73,3.06-1.73,1.97,0,2.89,1.33,2.89,3.73v5.91h-1.98v-5.67c0-1.62-.48-2.26-1.55-2.26-.63,0-1.33,.41-2.12,1.26v6.67h-1.96v-5.67c0-1.62-.5-2.26-1.57-2.26-.63,0-1.33,.41-2.1,1.26v6.67h-1.97v-9.42Z"/>
        <path d="M412.73,62.95h1.61l.17,1.33h.04c.82-.87,1.74-1.56,2.92-1.56,1.4,0,2.17,.65,2.58,1.73,.94-.99,1.88-1.73,3.06-1.73,1.97,0,2.89,1.33,2.89,3.73v5.91h-1.98v-5.67c0-1.62-.48-2.26-1.55-2.26-.63,0-1.33,.41-2.12,1.26v6.67h-1.96v-5.67c0-1.62-.5-2.26-1.57-2.26-.63,0-1.33,.41-2.1,1.26v6.67h-1.97v-9.42Z"/>
        <path d="M428.7,68.88v-5.93h1.98v5.69c0,1.61,.48,2.26,1.57,2.26,.87,0,1.49-.41,2.26-1.4v-6.55h1.98v9.42h-1.62l-.15-1.42h-.05c-.85,.99-1.78,1.66-3.06,1.66-2.02,0-2.91-1.33-2.91-3.73Z"/>
        <path d="M439.43,62.95h1.61l.17,1.32h.03c.86-.85,1.83-1.54,3.11-1.54,2,0,2.89,1.33,2.89,3.73v5.91h-1.97v-5.67c0-1.62-.48-2.26-1.59-2.26-.87,0-1.45,.43-2.29,1.26v6.67h-1.96v-9.42Z"/>
        <path d="M449.85,60.01c0-.68,.5-1.16,1.23-1.16s1.21,.48,1.21,1.16c0,.73-.5,1.2-1.21,1.2s-1.23-.46-1.23-1.2Zm.24,2.94h1.97v9.42h-1.97v-9.42Z"/>
        <path d="M455.32,69.29v-4.75h-1.37v-1.47l1.47-.12,.22-2.6h1.64v2.6h2.44v1.59h-2.44v4.77c0,1.13,.39,1.71,1.38,1.71,.31,0,.72-.12,.99-.22l.36,1.45c-.51,.17-1.16,.36-1.85,.36-2.1,0-2.85-1.33-2.85-3.32Z"/>
        <path d="M461.02,76.11l.38-1.54c.17,.05,.45,.14,.7,.14,1.01,0,1.61-.75,1.95-1.76l.21-.65-3.73-9.35h2l1.73,4.85c.29,.84,.58,1.76,.87,2.65h.08c.24-.87,.5-1.79,.74-2.65l1.52-4.85h1.9l-3.45,9.98c-.73,2.02-1.73,3.37-3.69,3.37-.5,0-.87-.07-1.2-.19Z"/>
      </g>
    </g>
  </g>
</svg>